<mxfile host="app.diagrams.net" agent="Mozilla/5.0 (Windows NT 10.0; Win64; x64) AppleWebKit/537.36 (KHTML, like Gecko) Chrome/138.0.0.0 Safari/537.36" version="27.0.3">
  <diagram id="C5RBs43oDa-KdzZeNtuy" name="Page-1">
    <mxGraphModel dx="1097" dy="640" grid="0" gridSize="10" guides="0" tooltips="1" connect="1" arrows="1" fold="1" page="1" pageScale="1" pageWidth="827" pageHeight="1169" math="0" shadow="0">
      <root>
        <mxCell id="WIyWlLk6GJQsqaUBKTNV-0" />
        <mxCell id="WIyWlLk6GJQsqaUBKTNV-1" parent="WIyWlLk6GJQsqaUBKTNV-0" />
        <mxCell id="ZMwdmfN9rIGzUT7Zmn_N-16" style="edgeStyle=orthogonalEdgeStyle;rounded=0;orthogonalLoop=1;jettySize=auto;html=1;" edge="1" parent="WIyWlLk6GJQsqaUBKTNV-1" source="WIyWlLk6GJQsqaUBKTNV-3">
          <mxGeometry relative="1" as="geometry">
            <mxPoint x="335" y="350" as="targetPoint" />
          </mxGeometry>
        </mxCell>
        <mxCell id="WIyWlLk6GJQsqaUBKTNV-3" value="Document Loader and Text Splitter" style="rounded=1;whiteSpace=wrap;html=1;fontSize=12;glass=0;strokeWidth=1;shadow=0;" parent="WIyWlLk6GJQsqaUBKTNV-1" vertex="1">
          <mxGeometry x="280" y="240" width="110" height="60" as="geometry" />
        </mxCell>
        <mxCell id="ZMwdmfN9rIGzUT7Zmn_N-0" value="📄 Uploaded Files (PDF, DOCX, CSV...)&#xa;                           │&#xa;                           ▼&#xa;              ┌─────────────────────────────┐&#xa;              │     🧠 IngestionAgent        │&#xa;              │  - Split into text chunks   │&#xa;              │  - Generate embeddings      │&#xa;              └────────────┬────────────────┘&#xa;                           │&#xa;         (MCP: EMBEDDINGS_READY)&#xa;                           ▼&#xa;              ┌─────────────────────────────┐&#xa;              │    📥 RetrievalAgent         │&#xa;              │  - Build FAISS (cosine sim) │&#xa;              │  - Query top-k chunks       │&#xa;              └────────────┬────────────────┘&#xa;                           │&#xa;        (MCP: CONTEXT_RESPONSE)&#xa;                           ▼&#xa;              ┌─────────────────────────────┐&#xa;              │ 🤖 LLMResponseAgent          │&#xa;              │  - Generate final answer     │&#xa;              │    using context &amp; query     │&#xa;              └────────────┬────────────────┘&#xa;                           │&#xa;        (User sees answer in Streamlit UI)&#xa;                           ▼&#xa;              ┌─────────────────────────────┐&#xa;              │     🧑‍💻 Streamlit Chat UI     │&#xa;              │  - Chat history maintained   │&#xa;              │  - Upload docs, ask Qs       │&#xa;              └─────────────────────────────┘" style="text;whiteSpace=wrap;" vertex="1" parent="WIyWlLk6GJQsqaUBKTNV-1">
          <mxGeometry x="550" y="50" width="340" height="480" as="geometry" />
        </mxCell>
        <mxCell id="ZMwdmfN9rIGzUT7Zmn_N-2" style="edgeStyle=orthogonalEdgeStyle;rounded=0;orthogonalLoop=1;jettySize=auto;html=1;" edge="1" parent="WIyWlLk6GJQsqaUBKTNV-1" source="ZMwdmfN9rIGzUT7Zmn_N-1">
          <mxGeometry relative="1" as="geometry">
            <mxPoint x="335" y="230" as="targetPoint" />
          </mxGeometry>
        </mxCell>
        <mxCell id="ZMwdmfN9rIGzUT7Zmn_N-1" value="" style="shape=image;verticalLabelPosition=bottom;labelBackgroundColor=default;verticalAlign=top;aspect=fixed;imageAspect=0;image=data:image/png,iVBORw0KGgoAAAANSUhEUgAAAgAAAAIACAYAAAD0eNT6AAAAAXNSR0IArs4c6QAAIABJREFUeAHtnduXZEWd75mHwzz47Jr5J+Y8zPtZa6gGHTwyjpeuokFURFS8gLpwUEZQUdBBdMDDcFAZUURA+iAKykWhuTQ3uxu5dNN0N3Y3WVVZu0AFKut+yzgrsnvTm+yKqoy9I/aOiN+n1+qVWbuqdkZ84xPf7zez8nLCCfxLWoHJycm3tdqTp7UmJj7XamdXttqTN7cmsm2tdrav1c46o+1M8R8NYKAZBh55YufDSRsQk0MBFKhXgSzL3j7WnjxnrJ3dPdrO5jH3Zswd3dF9IwZ+de+DihJQrz9yayiQnAJ79uw5cXQ8O2+0nW0fbWerGxkP3yecYKB5BnQBoAQkZ8dMCAXqUUAp9Tej7ckto+PZQQy9eUNnDVgDGwbyAkAJqMcvuRUUSEaBl8cnh0bb2S4bw+FnCSgYCIeBYgGgBCRjzUwEBfwpcPjVV/9+dDy7ByMPx8hZC9aiDAP9BYAS4M83OTMKRK/Ay+32P462s7EyZsPvEFIwEBYDaxUASkD0Ns0EUMC9Aq3xbPNoO5vFxMMycdaD9SjLgKkAUALc+ydnRIEoFdBP9Gu1s6+NtrNuWaPh9wgpGAiPgfUKACUgSrtm0CjgTgEd/mPj2U2Yd3jmzZqwJlUZ2KgAUALceSlnQoHoFBhrZ1+tajL8PkEFA2EyMEgBoAREZ9sMGAWqK9Aazz7Aw/5hGjeByrq4YGDQAkAJqO6nnAEFolHg6LP9ecIfn1XAZzUkzIBNAaAERGPfDBQFyivQe50/L/Uj+BIOPhf3nlM4h20BoASU91V+EwWiUODoh/gQgAQgDCTOQJkCQAmIwsYZJArYKzA2lv1TCvdsmAN/I4eBjRkoWwAoAfbeym+gQNAK9D7YZzzbgXFubJxohEYpMFClAFACgrZzBocCdgqMtidHUjA15kA4w8BgDFQtAJQAO4/lp1EgSAX27NlzIh/pO5hpEi7olAoDLgoAJSBIS2dQKDC4AqPj2XmpmBrzIKBhYDAGXBUASsDgXstPokBwCoy2s+2Y5mCmiU7olAoDLgsAJSA4W2dAKLCxAlmWvX20na2mYmrMg4CGgcEYcF0AKAEb+y0/gQJBKTDWnjwHwxzMMNEJnVJiwEcBoAQEZe8MBgXWV4A3/iHUUgo15jI4z74KACVgfc/luygQhAKTk5NvG21n85jm4KaJVmiVCgM+CwAlIAiLZxAoYFag1Z48LRUzYx4EMwzYMeC7AFACzN7Ld1CgcQVaExOfwzTtTBO90CsVBuooAJSAxm2eAaDA2gq02tmVqZgZ8yCYYcCOgboKACVgbf/lKAo0qkCrPXkzpmlnmuiFXqkwUGcBoAQ0avXcOAocr0BrItuWipkxD4IZBuwYqLsAUAKO92COoEBjCrTa2T5M08400Qu9UmGgiQJACWjM7rlhFHirAq121knFzJgHwQwDdgw0VQAoAW/1Yb5CgUYUwDDtDBO90CslBposAJSARiyfG0WBYwqkZGbMhXCGATsGmi4AlIBjXsw1FKhdAQzTzjDRC71SYiCEAkAJqN32uUEUOKJASmbGXAhnGLBjIJQCQAkgkVCgAQUwTDvDRC/0SomBkAoAJaCBAOAmZSuQkpkxF8IZBuwYCK0AUAJk5xGzr1kBDNPOMNELvVJiIMQCQAmoOQS4ObkKpGRmzIVwhgE7BkItAJQAuZnEzGtUAMO0M0z0Qq+UGAi5AFACagwCbkqmAimZGXMhnGHAjoHQCwAlQGYuMeuaFMAw7QwTvdArJQZiKACUgJrCgJuRp0BKZsZcCGcYsGMglgJACZCXTcy4BgUwTDvDRC/0SomBmAoAJaCGQOAmZCmQkpkxF8IZBuwYiK0AUAJk5ROz9awAhmlnmOiFXikxEGMBoAR4DgVOL0eBlMyMuRDOMGDHQKwFgBIgJ6OYqUcFMEw7w0Qv9EqJgZgLACXAYzBwahkKpGRmzIVwhgE7BmIvAJQAGTnFLD0pgGHaGSZ6oVdKDKRQACgBnsKB06avQEpmxlwIZxiwYyCVAkAJSD+rmKEHBTBMO8NEL/RKiYGUCgAlwENAcMq0FUjJzJgL4QwDdgykVgAoAWnnFbNzrACGaWeY6IVeKTGQYgGgBDgOCU6XrgIpmRlzIZxhwI6BVAsAJSDdzGJmDhXAMO0ME73QKyUGUi4AlACHQcGp0lQgJTNjLoQzDNgxkHoBoASkmVvMypECGKadYaIXeqXEgIQCQAlwFBacJj0FUjIz5kI4w4AdA1IKACUgvexiRg4UwDDtDBO90CslBiQVAEqAg8DgFGkpkJKZMRfCGQbsGJBWACgBaeUXs6moAIZpZ5johV4pMSCxAFACKoYGv56OAimZGXMhnGHAjgGpBYASkE6GMZMKCmCYdoaJXuiVEgOSCwAloEJw8KtpKJCSmTEXwhkG7BiQXgAoAWnkGLMoqQCGaWeY6IVeKTFAAXhQUQJKhge/Fr8CKZkZcyGcYcCOAQrAkQJACYg/y5hBCQUwTDvDRC/0SokBCsCxAkAJKBEg/ErcCqRkZsyFcIYBOwYoAG8tAJSAuPOM0VsqgGHaGSZ6oVdKDFAAji8AlADLEOHH41UgJTNjLoQzDNgxQAFYuwBQAuLNNEZuoQCGaWeY6IVeKTFAATAXAEqARZDwo3EqkJKZMRfCGQbsGKAArF8AKAFx5hqjHlABDNPOMNELvVJigAKwcQGgBAwYJvxYfAqkZGbMhXCGATsGKACDFQBKQHzZxogHUADDtDNM9EKvlBigAAxeACgBAwQKPxKXAimZGXMhnGHAjgEKgF0BoATElW+MdgMFMEw7w0Qv9EqJAQqAfQGgBGwQKnw7HgVSMjPmQjjDgB0DFIByBYASEE/GMdJ1FMAw7QwTvdArJQYoAOULACVgnWDhW3EokJKZMRfCGQbsGKAAVCsAlIA4co5RGhTAMO0ME73QKyUGKADVCwAlwBAuHA5fgZTMjLkQzjBgxwAFwE0BoASEn3WMcA0FMEw7w0Qv9EqJAQqAuwJACVgjYDgUtgIpmRlzIZxhwI4BCoDbAkAJCDvvGF2fAhimnWGiF3qlxAAFwH0BoAT0hQxfhqtASmbGXAhnGLBjgALgpwBQAsLNPEZWUADDtDNM9EKvlBigAPgrAJSAQtBwNUwFUjIz5kI4w4AdAxQAvwWAEhBm7jGqowpgmHaGiV7olRIDFAD/BYASQNwGq0BKZsZcCGcYsGOAAlBPAaAEBBuBsgeGYdoZJnqhV0oMUADqKwCUANlZG+TsUzIz5kI4w4AdAxSAegsAJSDIGJQ7KAzTzjDRC71SYoACUH8BoATIzdvgZp6SmTEXwhkG7BigADRTACgBwUWhzAFhmHaGiV7olRIDd9//kKIEUAJkph+zPiElM2MuhDMM2DFw37btFIB7mysAPBJACDeqAIZpZ5johV4pMfDg9qcoAA0XAEpAoxEo+8ZTMjPmQjjDgB0Djz65iwIQQAGgBMjO4cZmj2HaGSZ6oVdKDDy561kKQCAFgBLQWAzKveGUzIy5EM4wYMfArudeoAAEVAAoAXKzuJGZY5h2hole6JUSA7tfPEABCKwAUAIaiUKZN5qSmTEXwhkG7Bh4eayt7rpvGyWAEiAzAKXPGsO0M0z0Qq/UGHjo8R0UgAALAI8ESE/nGuafmpkxHwIaBuwYeGb3ixSAQAsAJaCGEJR8E5ilnVmiF3qlxsCh1jgFIOACQAmQnNCe556amTEfAhoG7Bl44NEnKQGUAM9pw+mDUwCztDdLNEOz1Bh4+vm9FIDACwCPBAQXn/EPKDUjYz6EMwzYM9Aan1D3PsjnAuiQDf3/I0/sfDj+5GEGQSiAWdqbJZqhWYoMPPfC/uDDL/Rwrmt8lIAg4jP+QaRoZMyJgIaBcgz8/pEnKAERPAqgiwYlIP78bXwGGGU5o0Q3dEuRgb0HDlIAIikAlIDG4zP+AaRoYsyJcIaB8gw8zBsDRVWCeCQg/hxubAYYZXmjRDu0S5EB/b4A9zz4aFQhWNff3kO9HUpAYxEa9w2naGDMiWCGgWoM7D94WN11/0OUAP4cEHfAMfr1FcAoqxkl+qFfqgw8v5dXBYR6j980Lh4JWD/v+G6fAqmaF/MimGGgOgN/+OPzPAoQ0aMAuhhQAvpCji/NCmCS1U0SDdEwZQYefWoXJYASYA4RvhOvAikbF3MjmGHADQM8EhD+OwT2/1mARwLizeXaRo5BujFIdETH1BnQzwngiYFxFQFKQG1RGucNpW5azI9ghgF3DOz702H12wd4iWD/ve2Qv6YExJnNtYwac3RnjmiJlhIYONgaUw/xZkFRPS+CElBLnMZ3IxIMizkSzDDgnoEX9v9J/Y7PDoimCFAC4stn7yPGGN0bI5qiqSQG9KcI8lHCcTw3gBLgPVLjugFJRsVcCWYY8MNAa3xCPf38XvXAo09Gc4845L/b+xwbJSCujPY6WgzRjyGiK7pKZUB/lsAzu1/sPU/grvu2UQgCfA8BSoDXWI3n5FJNinkT0DDgn4GXx9pq94sH1K7nXlBP7npWPfrkLvXg9qfUfdu2q7v5rIFGyxElIJ6c9jZSTNC/CaIxGsPA2gzsfemw2vHcPv43pIG3YOHEcSiAMa1tTOiCLjBQDwOUgOYKUBwpxSi9KYDJ1WNy6IzOMGBmgBLQTAnwFiycOA4FMCWzKaEN2sBAfQxQAuovAXGkFKP0pgAGV5/BoTVaw8D6DFAC6i0B3oKFE8ehAIa0viGhD/rAQL0MUALqKwFxpBSj9KYA5lavuaE3esPAxgxQAuopAd6ChRPHoQBmtLEZoREawUD9DFAC/JeAOFKKUXpTAGOr39jQHM1hYDAGKAF+S4C3YOHEcSiAEQ1mROiETjDQDAOUAH8lII6UYpTeFMDUmjE1dEd3GBicAUqAnxLgLVg4cRwKYEKDmxBaoRUMNMcAJcB9CYgjpRilNwUwtOYMDe3RHgbsGKAEuC0B3oKFE8ehAAZkZ0DohV4w0CwDlAB3JSCOlGKU3hTAzJo1M/RHfxiwZ4AS4KYEeAsWThyHApiPvfmgGZrBQPMMUAKql4A4UopRelMAI2veyFgD1gAGyjFACahWArwFCyeOQwGMp5zxoBu6wUAYDFACypeAOFKKUXpTABMLw8RYB9YBBsozQAkoVwK8BQsnjkMBTKe86aAd2sFAOAxQAuxLQBwpxSi9KYCBhWNgrAVrAQPVGKAE2JUAb8HCieNQAMOpZjjoh34wEBYDlIDBS0AcKcUovSmAeYVlXqwH6wED1RmgBAxWArwFCyeOQwHMprrZoCEawkB4DFACNi4BcaQUo/SmAMYVnnGxJqwJDLhhgBKwfgnwFiycOA4FMBo3RoOO6AgDYTJACTCXgDhSilF6UwDTCtO0WBfWBQbcMUAJWLsEeAsWThyHApiMO5NBS7SEgXAZoAQcXwLiSClG6U0BDCtcw2JtWBsYcMsAJeCtJcBbsHDiOBTAYNwaDHqiJwyEzQAl4FgJiCOlGKU3BTCrsM2K9WF9YMA9A5SAIyXAW7Bw4jgUwFzcmwuaoikMhM8AJWCfiiOlGKU3BTCq8I2KNWKNYMAPA9JLgLdg4cRxKICx+DEWdEVXGIiDAcklII6UYpTeFMCk4jAp1ol1ggF/DEgtAd6ChRPHoQCm4s9U0BZtYSAeBiSWgDhSilF6UwCDisegWCvWCgb8MiCtBHgLFk4chwIYil9DQV/0hYG4GJBUAuJIKUbpTQHMKS5zYr1YLxjwz4CUEuAtWDhxHApgJv7NBI3RGAbiY0BCCYgjpRilNwUwpviMiTVjzWCgHgZSLwHegoUTx6EARlKPkaAzOsNAnAykXALiSClG6U0BTClOU2LdWDcYqI+BVEuAt2DhxHEogInUZyJojdYwEC8DKZaAOFKKUXpTAEOK15BYO9YOBuplILUS4C1YOHEcCmAg9RoIeqM3DMTNQEolII6UYpTeFMCM4jYj1o/1g4H6GUilBHgLFk4chwKYR/3mgeZoDgPxM5BCCYgjpRilNwUwoviNiDVkDWGgGQZiLwHegoUTx6EAxtGMcaA7usNAGgzEXALiSClG6U0BTCgNE2IdWUcYaI6BWEuAt2DhxHEogGk0Zxpoj/YwkA4DMZaAOFKKUXpTAANKx4BYS9YSBpplILYS4C1YOHEcCmAYzRoG+qM/DKTFQEwlII6UYpTeFMB80jIf1pP1hIHmGYilBHgLFk4chwKYRfNmwRqwBjCQHgMxlIA4UopRelMA40nPeFhT1hQGwmAg9BLgLVg4cRwKYBRhGAXrwDrAQJoMhFwC4kgpRulNAUwnTdNhXVlXGAiHgVBLgLdg4cRxKIBJhGMSrAVrAQPpMhBiCYgjpRilNwUwnHQNh7VlbWEgLAZCKwHegoUTx6EABhGWQbAerAcMpM1ASCUgjpRilN4UwGzSNhvWl/WFgfAYCKUEeAsWThyHAphDeObAmrAmMJA+AyGUgDhSilF6UwCjSd9oWGPWGAbCZKDpEuAtWDhxHApgDGEaA+vCusCADAaaLAFxpBSj9KYAJiPDZFhn1hkGwmWgqRLgLVg4cRwKYArhmgJrw9rAgBwGmigBcaQUo/SmAAYjx2BYa9YaBsJmoO4S4C1YOHEcCmAIYRsC68P6wIAsBuosAXGkFKP0pgDmIstcWG/WGwbCZ6CuEuAtWDhxHApgBuGbAWvEGsGAPAbqKAFxpBSj9KYAxiLPWFhz1hwG4mDAdwnwFiycOA4FMII4jIB1Yp1gQCYDPktAHCnFKL0pgKnINBXWnXWHgXgY8FUCvAULJ45DAUwgHhNgrVgrGJDLgI8SEEdKMUpvCmAocg2FtWftYSAuBlyXAG/BwonjUAADiMsAWC/WCwZkM+CyBMSRUozSmwKYiWwzYf1ZfxiIjwFXJcBbsHDiOBRg88e3+Vkz1gwGYMBFCYgjpRilNwUwEowEBmAABuJkoGoJ8BYsnDgOBdj4cW581o11gwEY0AxUKQFxpBSj9KYAJoKJwAAMwEDcDJQtAd6ChRPHoQAbP+6Nz/qxfjAAA5qBMiUgjpRilN4UwDwwDxiAARhIgwHbEuAtWDhxHAqw8dPY+Kwj6wgDMKAZsCkBcaQUo/SmAKaBacAADMBAWgwMWgK8BQsnjkMBNn5aG5/1ZD1hAAY0A4OUgDhSilF6UwCzwCxgAAZgIE0GNioB3oKFE8ehABs/zY3PurKuMAADmoH1SkAcKcUovSmASWASMAADMJA2A6YS4C1YOHEcCrDx0974rC/rCwMwoBlYqwTEkVKM0psCmAPmAAMwAAMyGOgvAd6ChRPHoQAbX8bGZ51ZZxiAAc1AsQTEkVKM0psCmAKmAAMwAAOyGMhLgLdg4cRxKMDGl7XxWW/WGwZgQDOgS0AcKcUovSmAGWAGMAADMCCTAW/BwonjUICNL3Pjs+6sOwzAQBwpxSi9KYAJYAIwAAMwIJMBb8HCieNQgI0vc+Oz7qw7DMBAHCnFKL0pgAlgAjAAAzAgkwFvwcKJ41CAjS9z47PurDsMwEAcKcUovSmACWACMAADMCCTAW/BwonjUICNL3Pjs+6sOwzAQBwpxSi9KYAJYAIwAAMwIJMBb8HCieNQgI0vc+Oz7qw7DMBAHCnFKL0pgAlgAjAAAzAgkwFvwcKJ41CAjS9z47PurDsMwEAcKcUovSmACWACMAADMCCTAW/BwonjUICNL3Pjs+6sOwzAQBwpxSi9KYAJYAIwAAMwIJMBb8HCieNQgI0vc+Oz7qw7DMBAHCkVwCjVqaf+7dTI0Kmd4ZOuf2N46JGpkaEDU8ND01PDQ4r/aAADMAAD9TPwxlnvUq9/+gz11y9/Sv356svVxAP3qdHWqKLcDFZuAojWsIcws2XT302NDF03NTzUYYPXv8HRHM1hAAZsGNCl4M/XXKHG9u2jCLTXLwJhp2+Do1ObN584NXzSJdzLx3xszIefhRcYCIMBXQReufE6NTo6RhEwFIEGIzbcm+7d6x8eeoyNHMZGZh1YBxiAgbIMvHbRJ3k0gAIwWOGY2XzyP0wNnzRaFjZ+D6OCARiAgbAYeP3jm1V71w4eCegrAoOlopCfOnLPn/DHvMIyL9aD9YCB6gzoEsDzAt76nAAh0b7xNI/8zZ+H/TGa6kaDhmgIA2EyoP8cwHMCjpWAjZNRyE8cfcIfL+njZY0wAAMwkDADvScG9j0ULvVlg0Liff1pHn3SH6/pT3jTc48szHtkrAvrUjcD+tUB/CngyKMA6yejkO8efZ0/rZ8CAAMwAAMCGNDvEyD1Xn9x3kIi3jzN3jv88SY/mJ4A06v7nha3x737UBnQjwLwjoGZMiejkO/ot/cNFVLGhYHCAAzAgB8Gem8bLPy5AEJi3jxN/d7+bDA/Gwxd0RUGYCBUBvRnBxQfDpd43ZyMQr7T+2AfHv7lTwAwAAMwIIoB/QFCEkO/OGchMW+e5tFP9RMFfqiNnHFxbxEGYKAuBvSnCBbDUOJ1czIK+Q4f9oPh1GU43A6swUA4DPSeCMhzAIQkvWGabMhwNiRrwVrAAAzUyYDEe/3FORtiUc7hOmHjtjA3GIABGAiHgWIYSrwuJ+kNM2UzhrMZWQvWAgZgoE4GJIZ+cc6GWJRzuE7YuC3MDQZgAAbCYaAYhhKvy0l6w0zZjOFsRtaCtYABGKiTAYmhX5yzIRblHK4TNm4Lc4MBGICBcBgohqHE63KS3jBTNmM4m5G1YC1gAAbqZEBi6BfnbIhFOYfrhI3bwtxgAAZgIBwGimEo8bqcpDfMlM0YzmZkLVgLGICBOhmQGPrFORtiUc7hOmHjtjA3GIABGAiHgWIYSrwuJ+kNM2UzhrMZWQvWAgZgoE4GJIZ+cc6GWJRzuE7YuC3MDQZgAAbCYaAYhhKvy0l6w0zZjOFsRtaCtYABGKiTAYmhX5yzIRblHK4TNm4Lc4MBGICBcBgohqHE63KS3jBTNmM4m5G1YC1gAAbqZEBi6BfnbIhFOYfrhI3bwtxgAAZgIBwGimEo8bqcpDfMlM0YzmZkLVgLGICBOhmQGPrFORtiUc7hOmHjtjA3GIABGAiHgWIYSrwuJ+kNM2UzhrMZWQvWAgZgoE4GJIZ+cc6GWJRzuE7YuC3MDQZgAAbCYaAYhhKvy0l6w0zZjOFsRtaCtYABGKiTAYmhX5yzIRblHK4TNm4Lc4MBGICBcBgohqHE63KS3jBTNmM4m5G1YC1gAAbqZEBi6BfnbIhFOYfrhI3bwtxgAAZgIBwGimEo8bqcpDfMlM0YzmZkLVgLGICBOhmQGPrFORtiUc7hOmHjtjA3GIABGAiHgWIYSrwuJ+kNM2UzhrMZWQvWAgZgoE4GJIZ+cc6GWJRzuE7YuC3MDQZgAAbCYaAYhhKvy0l6w0zZjOFsRtaCtYABGKiTAYmhX5yzIRblHK4TNm4Lc4MBGICBcBgohqHE63KS3jBTNmM4m5G1YC1gAAbqZEBi6BfnbIhFOYfrhI3bwtxgAAZgIBwGimEo8bqcpDfMlM0YzmZkLVgLGICBOhmQGPrFORtiUc7hOmHjtjA3GIABGAiHgWIYSrwuJ+kNM2UzhrMZWQvWAgZgoE4GJIZ+cc6GWJRzuE7YuC3MDQZgAAbCYaAYhhKvy0l6w0zZjOFsRtaCtYABGKiTAYmhX5yzIRblHK4TNm4Lc4MBGICBcBgohqHE63KS3jBTNuPgm7HzkdPU7De/qBZu+7FaevJhtbzzsXr/73hMLW1/QC3+ZqtauOVHau66K9Xsty9WM18+T3XO/hfFWg6+lmiFVjAwpCSGfnHOhliUc5hNsLER6uBfeuIhpbpdFey/bletvPSiWrjjZjXztc+rqTPeEVUhmP70GWr2O5eohV/cqBZ+dWu9/++8RS1svUnN3/wDNX/D1Wru2m+p2asuVTOXXqA6574/Kh1d7OfOJ4fV7GUXqvn/vkYtaG3qXo+qt3fLj3osTX/+I2pqS1z7wMX62ZyjGIYSr8tJesNMbWCR+LMzX/qkWp1sB5v7poF1F+bV8jN/UHPf/ZqaGtkUbIjNff9ytfqXV03TCOJ4d3ZGrfxpn1p69Pdq/mfXK81EyJqW2qdbTukFfnfq9SA0dzaIlWW1+Pu7Veec9wa7B0qt1/DGd1wGOa/E0C/O2RCLcg4PAonUn5n+wtlKLS0586KmTrQ63lJz//VtNbXllGBMUN87W9m3uylJKt9ud6ajlv+wXc3/+Puq84nNwehaZq/OfOUzanXs5cqahHyC7sy0mv/Rf0a9TmXWdqPfKYahxOtykt4w040Akfz95ReeDdnTrMe2+upk717e1Jn/3KgR6ofVQ7/XbyXu6qpafvpJNXfVV6P704suL93OG1bTjfmHZ6+4qFH2Q/NTiaFfnLMhFuUcDg3IUMajH5pO9Z9+RGD6Cx9txgjPeEfU9/w3YkKH6cKtN6ipM9/ZjL42Dw2PbFLLz+3aaEpJfb/72l9U56PvCX9tbNaxws8Ww1DidTlJb5hpKIEb2jhWErv33+/i3YWF3pPd6tZ9/sZr+4eS5NerkxNq9spLgg6a2W99OUntN5rUwh0/C3pd6tyTEkO/OGdDLMo5XCdsMd2W/puhhH+LD/xG1fknAf1QuaR/y8/tVL1no1e4l+Zr3yxs/amkpXhzrsvP7qAAHOWxGIYSr8tJesNMfZlLzOfVL0mT9G/l8Euq8/EP+DfF009W3blZSdIemat+JvrdW1Xnw+/2r7FF0Vje9YS8tVBK6Vc6xOxPLscuMfSLczbEopzDLmFK5Vz6dfTS/q0c3Kc6Z53q1Rh7r6qQJmxhvt03XlNz13zTq8Y2e3A1Gy+MTtbVzlnvCmYdbNbM9c8Ww1DidTlJb5ipa6BSON+swAKg7V+/rM3n69tn/u3jslLGMNvekwQt7qn72lP6VSES/62+khH+/Amg9y6IhliUc9iXucR8XqkFQIfB4t23ezNHCsCxuNV/EvBZtgbZf1ILgH4b70H0kfAzEu/1F+cdE5bGAAAfg0lEQVQsJ+kNM5UAue0cJRcAHVG+3jCFAnCsAOhrSw/fr6ZOP7mxMJJaAOZ/+L3GNLf1It8/XwxDidcNsSjnsG/AYjy/9AKgVla8vE8ABeCtBUB/tbzz8VpfhVHcjxILgH7Ca5Olq6h/CNclhn5xznKS3jDTECAMbQziC4AOpqefdH4viQJwfAHQR/R7TjTxCgFxBaDbVTMXf8o516H5l814imEo8bohFuUctoFFys9SAI4EVe9TBR0+WY0CsHYB6JWAAy/U/sl1ogrA0lLvkx6leNig85QY+sU5y0l6w0wHBUXSz7koAPrT4+Z/8l/O/y/cfqNaevC3avmZHar7+l/NieLgO/rjhV2uOwVg/UVZuPPnTvXeaO2kFAD91teavY30kPj9YhhKvG6IRTmHJUK/0ZxdFIDeE7wc3ntec8wjm9TMpeerxd9sVfrT6Xz8m/ve150Zp4sCsLznmd6bFuk3LnL5f/qCDyn9iMfc1d9Q8z+9Ti3e9Qu1tP0BtXLogA9Z1z6nfoj60guc6b0mMwUmky0AKytK/61fv8vl3PVXeX9/i410Dvn7EkO/OGc5SW+YachwNjW2aApAwcz1550v/u4upbrdtcOl5FH9ZjGuXq7mpAA08Dau0589Uy3c8qNeqJSUceBf06Hc+chptZSAqgVAf6KjyxLm6lx1vrV1Ux7l6naLYSjxuiEW5Rx2BVJK54mxAOT6z3z5POd/Gpi55HwngRRrAci11Zf6kYKF23/i9S2N9SMPxdv0db1yAXh1spZx+po/5x3qvRmOxODP5ywn6Q0zZRMMHWdiMRcAvZ76swz03z1d/XP1t+kUCkC+Xzqf2KyWHt/mSuLjzlPHWwZTAI7f+/n6SrnMg1DqpSEW5RyWArrNPGMvAHqunXP+Vem3PHXxb7V16LiSZKNn/rMpFYB8TrPfuFCtToy5kPkt59CfRjl93ogT3fOx9l9SACgAUoM/n7ecpDfMtN8U+HpIpVAA9Dr2Andp8S3BUvaL6U+dXjmMUiwAvf1y5jvV4r13lpXW+HtLj9xfWfP19jMFgAKQB6HUS0Msyjm8nkFI/V4qBUCvn35bXxf/5m+4unIYJVsAjj4Zc/HXt7mQ+tg5VpZV55PDlXU37WMKAAVAavDn85aT9IaZmsxB8vGUCoB+Bv/q2OFjoVLymot3Bky9AOg9o58v4fKfLhW+9iIFgAKQB6HUS0Msyjnsy1xiPm9SBWB4SOnX8lf9152brRxEEgpArwT8v5uqyv3m7+vnAnQ+9L8ra7/WfqQAUACkBn8+bzlJb5jpWsYg/VhqBaD3KMDE+JuhUvZK56x3VQoiKQVA75+lxx8qK/Nxv6ffUdLHnqQAUADyIJR6aYhFOYd9GEvs50yuAAwPqcW7bz8uWGwPTH/mjEpBJKkA6Ddm6k69bivxmj+vg9rHJ9hRACgAUoM/n7ecpDfMNPaw9jH+FAvA7GUXrhkuNgdnLv40BaDw7osbsefiTy/5+sxdfVkl7dcaKwWAApAHodRLQyzKObyWMUg/lmIBmDrjHUotL+d5Uupy9sqvVAohSY8A5Hto6alHSmnd/0sr+3ZX0j4fT/GSAkABkBr8+bzlJL1hpkVD4PoRQ0iyAAwPqaqGrz9YpQojEgtA59z3K+XivRhWV1Xnw++upH//2lXlQf9+/zn5Oq5SkQeh1EtDLMo5zIY9fsOmWgBWXtrbf8fS6uuFW2+oZPgSC4DeX/oNfVz8m/32xZX079/rFIDj936/Rql/LTX483nLSXrDTFMHvMz8Ui0Ayzsfq5RDi7+9o1IASS0A+rkTLv4t3r21kv79e4ECQAHIg1DqpSEW5RzuNwW+TuetgPvXcvm5XZVyaOHOWyoFkNQCoNdh5dCBStrrX9afcd+/plW+pgBQAKQGfz5vOUlvmGkVA0n1d1N9BGB17OVKIVT19eiSC8Dc9d+ppH3vl7td1Tn7Pc5KAAWAApAHodRLQyzKOZxqiFeZV6oFQL+bX5V/c1d/o1L4SC4A+t381MpKFfl7vzv7nUsqrUFxX1AAKABSgz+ft5ykN8y0aAhcP2IIKRaAmS99snr4fP0LlcJHcgHQe2vl4P7Ka7B4T7XnYRT3OAWAApAHodRLQyzKOVw0BK6nWwAW7vhZ5fCZ/vxHKAAWbwTUv58W7/1l5TVYObiv0hoUx0QBoABIDf583nKS3jDToiFwPdECoD8RcLxVOXw6H63292fpjwDod/Or+q/71z8HUwD0n5T0K0Oa/L/wq1vV3FVfVZ2Pvc+ZLpJ8MA9CqZeGWJRzWBLsg841tT8B6L/dV/63slzZYKUXgOnzRiovg1paqrwO+T6o+ghA9cm4PYMuubNXXepMn1ynlC+lBn8+bzlJb5hpynCXnVtSBWDLO9TqZLuy067sf6GysUovAJrH7hvVPyDI1TsCplYAcsiXHrrX+bsmlvWS0H8vD0Kpl4ZYlHM4dECbGF9KBWBhq5vPpl/4+Q8pABX+/p9zXPWlmDrkqn4q45tjeXUyz8zkLlcnJ1TnnH+tzGyuVaqXUoM/n7ecpDfMNFWwq8wrlQKgP7xHdbtOzL3qEwD1evAIwJBa2b+n8nrMXPwpJ8GW6iMAucDLOx5zolMVLwn9d/MglHppiEU5h0MHtInxpVAAdNhWfd1/bqSrE2NOjJQCMKSW//hULmvpy9lvfdnJeqReALTA8z/4rhOtmvChOm5TavDn85aT9IaZ1gFZbLcRewGYveIi1Z2fKx0w/b+4+OvbnJgoBWBILW1/oF9e66/nrv22k/WQUAB0CZ7acooTvWLzsUHGmweh1EtDLMo5PAgk0n4m2gKw5RQ1f9P/dfKOc8VUmrnkfCcGSgEYUov3/6oobanr8z+9zsl6SCgAWuCZf/+ME71S9EGpwZ/PW07SG2aaItRV5xRjAZi94ktOXuvfn0j6pVVTI5ucGCgFwM1HA8//6D+drIeUAuDiCaxVPSXU38+DUOqlIRblHA4VzCbHFUsBmP7C2Wph60+Vi2eW9wd//rXLz6CnAAyp5ed25tKWvtRvfONif0gpAEuPb3OilwvNQzuH1ODP5y0n6Q0zDQ3IEMbjogCs/uVVtbzzMff/9zyjVrNxpRYXSgfIoL+4vPtpp8ZJARhSK62Dg8pv/LmZSy9wsi5SCsD8z653olcI3uR6DHkQSr00xKKcw66BSuF8LgqA0b1j+Ua3q2a+eK5T46QAuHkjIBcvydT7VEoBmLnwY045TsHj8jlIDf583nKS3jDTHAQuj30wCAVAqaVt9zg3TfEF4PSTnbwvQ9XPZMj3uoQCsDp22DnHuX4pXOZBKPXSEItyDqcAses5SC8A3Zlp1fnEZufGKb0A6Hvulf+trDh7UmbqBaDbmVLTn/2gc45d+02T55Ma/Pm85SS9YaZNwhfqbYsuAMvLSs/fx9pILwD62ftV/3XfeM3Z2iRdAJaWlKvnSvjYC6GcMw9CqZeGWJRzOBQQQxqH2ALQ7aq5a77pLGD611R6AVh6/KGq+a9WW4ecrU+qBUC/BfD0BR9yplM/xyl9LTX483nLSXrDTFOC2dVcpBaA+Zt/4NU0pReA7mt/qVwAdIlwxXkyBWBlpfdSWK3NjKdHr1xpHtp58iCUemmIRTmHQwMyhPFILACL9/3KWbCY1lByAdD3SF38c/UmQHqNqhYAXWj0mjb5X78XxtSZ7/TOronp2I9LDf583nKS3jDT2AH2MX5RBaDbVQu//LmzJ5attx6SC8D8Tde5yH/l6iWAep2qFgD9++utN9879sqiULXIg1DqpSEW5RwOFcwmxyWlAHSnXlezl19Um4mLLQCnn6xWX8kqF4Du6391ulYUgPAD2rcPSg3+fN5ykt4wU9+AxXh+CQVgZe9zXl7qt956Sy0A+q17Xfxz+fd/vU4UAApAHoRSLw2xKOfweoYt9XspF4DuwkLv8wOmTj/Z6b3JQViRWgBWXtztIv+Vy7//UwAIf82A1ODP5y0n6Q0zHcS4pf1MigWgOzvT+1t/52Pvqz34c34kFoCZL53nJPz1SVz+/V+vCY8AUALyIJR6aYhFOYdzc+bymBmkVAC6b7yuFm65QXU+/O7Ggj9nS1wBGNmklnf/0UkBcP33fwrAsf2e8ynxUmrw5/OWk/SGmUqEfqM5x14AVifbavH3d6u5731dTX3w1MaDP9dbWgGY/+9rnIS/Psnib7Y6X0ceAaAE5EEo9dIQi3IO5+bM5TEziKYALC8r/bHDK4cOqKXHHlRz139HTX96i/OgcMWGpAKg34O+uzDvpgCsrnpZVwrAsT3vivHYziM1+PN5y0l6w0xjA7aO8booAMvPP61mr7jI7f/LL1Izl57fe5vTztn/EmzQm9ZITAEY2aRcPfFPN4ilJ9y9+19xbSgAFIA8CKVeGmJRzuGiIXD9iCG4KABLD98fXUD7Xn8pBWBh60/d3PM/epaZiz/lhSUKAAVAavDn85aT9IaZ+jb9GM9PAfBjjBIKwMKtNzgN/5V9u72Ev96XFAA/nMfkeXkQSr00xKKcwzHBWtdYKQB+jDH1ArBw24+dhr8+2exVl1IAhv3wWJefhHw7UoM/n7ecpDfMNGQ4mxobBcCP4aZcABZuv9F5+OtXc0yNbKIAUAC8MZAHodRLQyzKOdxUyIZ8uxQACsCgfHbOfZ9a2v6A8/DXJ9Sv6hh0HGV+jj8B+OG8zFo09TtSgz+ft5ykN8y0KfBCvl0KgB9jTOoRgJFNav6H31PdmY6X8F9+ZofX8Nf7jwLgh/OQva1/bHkQSr00xKKcw/1A8PWQogD4McZUCsDMhR9TK/tf8BL8+qTdzlQtH9REAfDDeUweKjX483nLSXrDTGOCta6xUgD8GGPMBaDzic1q/sZrjwR/t+st/PWJ5777Ne/3/vVeogD44bwun3JxO3kQSr00xKKcwy4gSu0cFAA/xhhNARjZpPSHJunx6k/gW3nhWaU8h37eKJYeqe/9IygAfjiPyQ+lBn8+bzlJb5hpTLDWNVYKgB9jdFEA9Fsf6885cP1/6fFtvXfvW30lU2p5Oc/jWi91INf5oU0UAD+c1+VTLm4nD0Kpl4ZYlHPYBUSpnYMC4McYXRSAWhO5zhvrdtXM1z5fy0P/+X6lAPjhPNc3hkupwZ/PW07SG2YaA6R1j5EC4McYKQCGRtHtKv3JgXVzTgHww3nd61jl9vIglHppiEU5h6vAk+rvUgD8GCMFYI0C0O2queuurD389d6lAPjhPCZflBr8+bzlJL1hpjHBWtdYKQB+jJEC0FcAVpbV3NWXNRL+FAA/jNflUa5uJw9CqZeGWJRz2BVIKZ2HAuDHHCkAhQKwtKRm/+PfGwt/vV95BMAP5zF5odTgz+ctJ+kNM40J1rrGSgHwY4wUgCMFoLswr2a/cWGj4U8B8MN4XR7l6nbyIJR6aYhFOYddgZTSeWa+eG7hrlq5q4v33NG4wYe2JhQA1Xvr4JlLzg+CDR4BoARIDf583nKS3jDT0EIiiPFsOUWppcVyyX/0t/T7xAcxl4A+Sa3z8Q9U0jTqX+521dLD96vOue8PhouVl16sJOnKwX3BzIW9Vq7M5EEo9dIQi3IOs3HW3jhVzXHm0gswxzXKR++NdirFTny/vHL4JTXzlc8Gx8Pi/b+uJObStnuCmxN+trafmXSRGvz5vOUkvWGmJjCkH69qjp2PvgdzXKMA+Pro3EpJ5umX9ScFzt9wjZoa2RQkC/rjhqv8m//JtUHOS7p32cw/D0Kpl4ZYlHPYBhZJPzt9/lmqOz9Xyh91yEnSymauVUOn1ILU/Uv64f4H71Gdc94bNAf6TzL6kwdL/VtaVNOf/WDQ87PhUurPSg3+fN5ykt4wU6ngDzLvuev+w9obu9Md1Tn3fRjjGvf+e5qPbFLLu56w1jWGX+jOzfY+o0A/iXQQvkL4mdkrLykl7cJtP45mjiHoHOoY8iCUemmIRTmHQwUzlHEtPXTv4Aap39Xt/1yBMZrC/+hx/YE3q2OHB9c15J/sdnsfIqTfza9z1ruiXPvF32y1Unjl4H41teUdUc41FF8JZRxSgz+ft5ykN8w0FBBDHof+fHb9KXTr/dOBNnPxpzHFDcI/X2f9bPjFe39Z+dUW662Jr++tZuNq8Xd3qbmrvqo6Z6fxXI/Zyy7cuJR1u2rxrl+oqTP/Gc4H5DznPdTLPAilXhpiUc7hUMEMbVz63t38jdeqpUd+p1Zbh3rPD1g5dEDpRwj0Z8ZPncE9ojJr1vnEZrVwx81q+ekn1ep4S6mlJV+5vfF5V5Z7r9Nf/fMranXsZbXy0t7enyt06OnnLuhn8if95M4tp6i571/eC/neemTjqvv6X9XyszvUwp0/p+AmEvrFfSo1+PN5y0l6w0yLMHDd7iU06IVeMAADMTOQB6HUS0MsyjkcM7yMHfOFARiAgfIMSA3+fN5ykt4wUzZP+c2DdmgHAzAQMwN5EEq9NMSinMMxw8vYMV8YgAEYKM+A1ODP5y0n6Q0zZfOU3zxoh3YwAAMxM5AHodRLQyzKORwzvIwd84UBGICB8gxIDf583nKS3jBTNk/5zYN2aAcDMBAzA3kQSr00xKKcwzHDy9gxXxiAARgoz4DU4M/nLSfpDTNl85TfPGiHdjAAAzEzkAeh1EtDLMo5HDO8jB3zhQEYgIHyDEgN/nzecpLeMFM2T/nNg3ZoBwMwEDMDeRBKvTTEopzDMcPL2DFfGIABGCjPgNTgz+ctJ+kNM2XzlN88aId2MAADMTOQB6HUS0MsyjkcM7yMHfOFARiAgfIMSA3+fN5ykt4wUzZP+c2DdmgHAzAQMwN5EEq9NMSinMMxw8vYMV8YgAEYKM+A1ODP5y0n6Q0zZfOU3zxoh3YwAAMxM5AHodRLQyzKORwzvIwd84UBGICB8gxIDf583nKS3jBTNk/5zYN2aAcDMBAzA3kQSr00xKKcwzHDy9gxXxiAARgoz4DU4M/nLSfpDTNl85TfPGiHdjAAAzEzkAeh1EtDLMo5HDO8jB3zhQEYgIHyDEgN/nzecpLeMFM2T/nNg3ZoBwMwEDMDeRBKvTTEopzDMcPL2DFfGIABGCjPgNTgz+ctJ+kNM2XzlN88aId2MAADMTOQB6HUS0MsyjkcM7yMHfOFARiAgfIMSA3+fN5ykt4wUzZP+c2DdmgHAzAQMwN5EEq9NMSinMMxw8vYMV8YgAEYKM+A1ODP5y0n6Q0zZfOU3zxoh3YwAAMxM5AHodRLQyzKORwzvIwd84UBGICB8gxIDf583nKS3jBTNk/5zYN2aAcDMBAzA3kQSr00xKKcwzHDy9gxXxiAARgoz4DU4M/nLSfpDTOdGh6aZgOV30Boh3YwAAMxMvDaR9+r8iCUemmIRTmHp0aGDsQIL2PGdGEABmCgPAOvXvwZCoCcqF97pm8MDz3CJiq/idAO7WAABmJkYPx7l1MA1o5FOUc7wyddHyO8jBnThQEYgIHyDBy6/VYKgJyoX3umUyNDp7KJym8itEM7GICBGBl4fuczFIC1Y1HOUXXqqX87NTzUiRFgxozxwgAMwIA9A6+d816187l9FAA5UW+e6dTI0HVsIvtNhGZoBgMwECMDB7fepnZQAJQ5FQV9Z2bLpr/j5YAYWYxGxpjhFgbsGNAv/9v1/D4KQDujAOQ9Z2r4pEvYSHYbCb3QCwZgIDYG9t93Xy/8eQSAApDn/wlq8+YTp4aHHosNZsaLAcMADMDAYAxMXHVZ72//OvwpABSANwuAvnLkTwEnjbKZBttM6IROMAADsTDw5y987M2H/ikAWe8JkG8JQL444YSZzSf/w9QwJSCWTc04CSAYgIGNGNDh/8yze9986J8CQAEw9p2jTwrkzwHDGMtGxsL3YQQGwmZAP+yfP+kvD/78UupnAOTzNoag9G8ceU5A74mBfFgQRUBh8mGbPOvD+vQzoJ/tr5/wp1/vnwd+/2UehFIvpef8hvPvPRpw5H0CeLMgigBFAAZgIHAG9Jv86Nf5m+71F0uA1ODP571hAPIDRxTovWPgyNCp+rMDeh8gdORTBHl0IHAz6L9XwNfcU4SBdBjQ9/L1p/rpD/bR7+2v3953vXv8xfDX1/MglHpJvgtXoH9D8LX54UK0QRsYSIeBnc/vpwAIzz/x08fQ0jE01pK1hIHBGXh6zwEKgPgEFC4AhjG4YaAVWsFAOgw8u/dPFADh+Sd++hhaOobGWrKWMDA4A3v2H6IAiE9A4QJgGIMbBlqhFQykw8BLh8coAMLzT/z0MbR0DI21ZC1hYDAG9BMAW+NH3g1P6isA9LzFB6B0ATCMwQwDndAJBtJhgIf/eStg6dnfmz+mlo6psZasJQxszIC+9//y2IT4h/95BIAKcAKGsbFhoBEawUA6DOx96WXCv80jAMT/CSdQANZ5n3BMPx3TZy1ZS83As3tfUq2j4Sf5b//53AlB4QpgjBgjDMCABAae3n2Ah/77yo/w+GP6EjY+cyTgYEA2Azr8D7XGeeifAkDoFxXAGGUbI+vP+qfOgH7Ynyf9rf2Sx2IWcF2gAqlvfuZHwMGATAb0s/31E/74m//a4c+rAAQGfv+UMUeZ5si6s+6pMqCDX7/On3v95uDnSYD9SSj061RNgHkRcDCQPgM67PWn+ukP9tGhr9/el3f42zj4KQBCA79/2jkIXA6+adAKrWAABlJgoD8P+FqYAilAzBwwYxiAARiwZ0BY3DHdfgXYNPabBs3QDAZgIAUG+vOAr4UpkALEzAEzhgEYgAF7BoTFHdPtV4BNY79p0AzNYAAGUmCgPw/4WpgCKUDMHDBjGIABGLBnQFjcMd1+Bdg09psGzdAMBmAgBQb684CvhSmQAsTMATOGARiAAXsGhMUd0+1XgE1jv2nQDM1gAAZSYKA/D/hamAIpQMwcMGMYgAEYsGdAWNwx3X4F2DT2mwbN0AwGYCAFBvrzgK+FKZACxMwBM4YBGIABewaExR3T7VeATWO/adAMzWAABlJgoD8P+FqYAilAzBwwYxiAARiwZ0BY3DHdfgXYNPabBs3QDAZgIAUG+vOAr4UpkALEzAEzhgEYgAF7BoTFHdPtV4BNY79p0AzNYAAGUmCgPw/4WpgCKUDMHDBjGIABGLBnQFjcMd1+Bdg09psGzdAMBmAgBQb684CvhSmQAsTMATOGARiAAXsGhMUd0+1XgE1jv2nQDM1gAAZSYKA/D/hamAIpQMwcMGMYgAEYsGdAWNwx3X4F2DT2mwbN0AwGYCAFBvrzgK+FKZACxMwBM4YBGIABewaExR3T7VeATWO/adAMzWAABlJgoD8P+FqYAilAzBwwYxiAARiwZ0BY3DHdfgXYNPabBs3QDAZgIAUG+vOAr4UpkALEzAEzhgEYgAF7BoTFHdPtV4BNY79p0AzNYAAGUmCgPw/4WpgCKUDMHDBjGIABGLBnQFjcMd1+Bdg09psGzdAMBmAgBQb684CvhSmQAsTMATOGARiAAXsGhMUd0+1XoNXOOmwc+42DZmgGAzAQMwPa+/vzgK+FKdBqZ/tihpixY8IwAAMwYM+A9n5hccd0+xVoTWTb2Dz2mwfN0AwGYCBmBrT39+cBXwtToNWevDlmiBk7JgwDMAAD9gxo7xcWd0y3X4FWO7uSzWO/edAMzWAABmJmQHt/fx7wtTAFWhMTn4sZYsaOCcMADMCAPQPa+4XFHdPtV6DVnjyNzWO/edAMzWAABmJmQHt/fx7wtTAFJicn3zbazuZjBpmxY8QwAAMwYMXAvPZ+YXHHdNdSYKyd3c3msdo8Cr3QCwZgIFYGtOevlQUcE6jAWHvynFhBZtyYMAzAAAzYMaA9X2DUMeW1FMiy7O2j7WyVTWS3idALvWAABiJkYFV7/lpZwDGhCoy2s+0RgsxD8W0MGG5hAAasGNguNOaYtkmB0fHsPDaR1SaifFA+YAAG4mNgPDvPlAMcF6rAnj17Thwdzw5SAigBMAADMJAoA+PZQe31QmOOaa+nwGh7coSNn+jG555afPfUWDPWzDkDkyPrZQDfE6yAUupvRsezHZQASgAMwAAMJMbAeLZDe7zgiGPqGykwNpb9Exs/sY3v/F4E+rBHYCA2BrS3b+T/fB8FTuCNgTC32MyN8cIsDJgZ4I1/CPaBFTj86qt/P9rOxthQ5g2FNmgDAzAQCQNj2tMHDgB+EAVebrf/cbSdzUYCOE8W4mF+GIABGDiegVnt5SQaClgr0BrPPjDazrqUAO7pwAAMwEB0DHS1h1sbP7+AArkCY+3sq2z86DY+94SOvyeEJmgiigHt3bmPc4kCpRTQLxsZG89uogRQAmAABmAgDga0Z/OSv1KRxy/1K9ArAe3sUv4cEMfmx6RZJxgQy0BX3/Mn/PtTjK8rKzA2MfG+0XY2g7mINRdRD6HCOZxHxsAsf/OvHHOcYD0FxsZe+Z9j7ezlyDYGwcXff2EABlJmYIxn+6+XXHzPmQL6s6RH25N3UgK4hwQDMAADzTKg3+SH1/k7izdONKgCoxMT/2u0nT2FATRrAOiP/jAgkIHxbAdv7ztoWvFz3hRojWfDoxPZnzAhgSbEw8opP6zM3ELku/ex7ZMjPNHPW6RxYlsFdu1S/2N0PDtvtJ1tH21nq5QBygAMwAAMOGNAe+qj2mP37Nlzoq0/8/MoUJsC+jkCY+3Jc45+qNA8JuDMBLhHFuI9MsYEl34YmNceqr1Ue2ptBs4NoYArBSYnJ9/Wak+e1pqY+FyrnV3Zak/e3JrItrXa2b5WO+tQDigHMAADUhnQHtjzwp4nTt7c88ieV06epr3TlQ+Hep7/DzeNt5sMi4yiAAAAAElFTkSuQmCC;" vertex="1" parent="WIyWlLk6GJQsqaUBKTNV-1">
          <mxGeometry x="290" y="70" width="90" height="90" as="geometry" />
        </mxCell>
        <mxCell id="ZMwdmfN9rIGzUT7Zmn_N-14" style="edgeStyle=orthogonalEdgeStyle;rounded=0;orthogonalLoop=1;jettySize=auto;html=1;" edge="1" parent="WIyWlLk6GJQsqaUBKTNV-1" source="ZMwdmfN9rIGzUT7Zmn_N-3">
          <mxGeometry relative="1" as="geometry">
            <mxPoint x="130" y="220" as="targetPoint" />
          </mxGeometry>
        </mxCell>
        <mxCell id="ZMwdmfN9rIGzUT7Zmn_N-3" value="" style="shape=image;verticalLabelPosition=bottom;labelBackgroundColor=default;verticalAlign=top;aspect=fixed;imageAspect=0;image=data:image/png,iVBORw0KGgoAAAANSUhEUgAAAgAAAAIACAYAAAD0eNT6AAAAAXNSR0IArs4c6QAAIABJREFUeAHtnQncfuW473+lNCmUVIYtUyUbmROSLcMxHJVd6tgb7Uypc4RwInMyhi2xM+TItGWMNhEpYzJHhFLIkFOkOQ3nPN9/z/P3/p/3ed5nWmtd173W7/p83s/7DOtZ931/72tYw72uS7KYgAmUQGBDSbeVtIOkh0naS9L+kg6V9BZJx0o6XtKJkk6W9HVJp0v6kaSfSTpH0m8l/UnSxZKu6P322v4fr/mM79iGbfkNv2Uf7It9sm/aoC3apG36QF/oE32jj/TVYgImYAImYAImsAKBdSXdXtIukp4q6eWSjpH0pX4APl/Slb3P/19hf/SZvnMQwVgYE2NjjIyVMTN2iwmYgAmYgAm0ksBakraW9AhJT+8FvddI+mDvjPlr/bPt6woL7FUeiDB2rjjAAiawgRGsYAY7iwmYgAmYgAmkJ7Bl73L5rr3L6QdJeo+k0yRd2uEAv+jBAuxgCEuYwhbGFhMwARMwARMIIXBTSQ/u3/8+qndJ+xRJFzrQN3abAtYwhz1rEJgL5sRiAiZgAiZgApUR4DL0tpL2lfRuSWdKut7BvrFgP+1VBOaEuWGOmCvmzLcQKjMD78gETMAE2k9go/4itRdLOkHSRQ726YL9tAcFzB1zyFyy8JC5tZiACZiACZjAKgKbS9pb0pGSvifpGgf8YgP+pAMD5pY5Zq6Zc+beYgImYAIm0BECPHrG2eDh/WDgy/nlPWI4KdBP+z1zzwEBuoBO+LHEjjgBD9METKA7BLbpLdI7UNJnvSq/tWf30wb9lbbjqQN0BF1BZywmYAImYAKFEbiZpD0kHS3pXF/Sd9CfUwfQHXQIXUKnLCZgAiZgAgkJ3KKXee5p/XS1vo/f3cv6K53hL/IdOkUqZHQMXbOYgAmYgAkEEmAR1zMlneTFez7Ln/Msf56DAg4G0Dl0zwsJAx2AmzYBE+gWgS36yV8oTkMxm3kcuH9jblXpADqILpKQCN20mIAJmIAJVEhgq/7CLLK/Xeeg74OepDqAbqKjLCJEZy0mYAImYAJzEOCRrN37iVx8pu8z9qrO2JvaDzpLEiJ02I8XzuEA/BMTMIHuEdhe0hH92vRNOWu34wOMOnXgT32dRrctJmACJmACSwhs0i8DS+W3Oh2x922+0TqAjlPyGJ23mIAJmEBnCews6f2SLnfg94FPx3QAnUf3sQGLCZiACXSCAGc+z5P0y445/OgzT7ef9+oHtoBN+KpAJ1ygB2kC3SOwdc/Bvbnn6C5x4PfZvnVgpA5gG9gItmIxARMwgeIJ7CjpOD+zP9Lh+6w871l55NzwBAE2g+1YTMAETKAoAjeStKekb/pMz4HfOrCQDmBD2BI2ZTEBEzCBtAQ2lvRcF+BZyOFHnnm67bxXJChMhG1hYxYTMAETSEPglpLe0HNQf/XZnoO/daBWHcDGsDVszmICJmACYQQohIIz8mN8ec8cfVbfzrnB5rA9FyMKc39u2AS6SYByqK+XdJnP9mo923PwbmfwrnJesUFs0SWKu+mLPWoTaIzAZpJeK+lSB34HfutAKh3AJrFNbNRiAiZgApUR2FTS4Q78qRx+lWeR3ld7rjRwIICtYrMWEzABE5ibAE7kMCfvceD32X5xOkBSIWzXBwJzuz//0AS6SeDGvbP950u62I4/leNn4ddvJH1f0kmSPtK75HtkT0Vf0a9Bv4+kR0l6qKSdeuVo7yPp7pK2k3QHSbfuLxq7ae++8Qb9Z8t5vpzXfMaCMrZhW37Db9kH+2Kf7Js2qHdPm7RNH+gLfaJvXhCa62oCNowtY9MWEzABE1iRwG7O0x8S9K+UdFYv+9uJkt4p6UWS9pJ0P0m36QfpFScu0ZccUNBn+s4YGAtjYmyMkbH6tkOzDKg3gG1bTMAETGAZgR16lclOtmOuNTBdIek7ko6R9JLegdaT+mfXW0laa9mMtPcDxsqYubIAA1jABDYw8sFBfQywcWzdYgImYALasne29h5J19nxVhp4yNx2fO8y+6v7qVy3dTrXqayNWxKwIv0t7GAISx8UVMcAW8fmsX2LCZhABwmsL+kQL/BbOLBcL+nHvTPaoyXt37sf/kCXda3FmiiVC1sYwxrmsPeBwfwMWCiID8AXWEzABDpC4ImSzrPznCt4cIn6VEmvkfRoSTfriM5kHCbsmQPmgjnx7YP5DgbwBfgEiwmYQIsJsLIbR+mzpukZXNBbDf/J/krq+/eCzbot1o/Sh8bcMEesemfOmDvr+vQM8A34CIsJmECLCPAI0EslXWWHODEgsEL9C71HIA/q34tukRp0ciisJ2AumVM/fTD5YAAfga/wY4OdNBcPum0EWGl9pgP/ioH/nF4u9bf3VqE/pldgZcO2KYDHs5oAc8scM9fMua8OjGeAz8B3WEzABAokwKKpo7xQaqSTX3qWv02Bc+suV0OAuX+Orw6MtBEOjlhkiQ/Bl1hMwAQKIfB4Sef7DGcNx0bVNLLWkQzFZ/mFKHKD3UQn0A10xFUu17wygC/Bp1hMwAQSEyC5yscd+FcHflaFw4Nnyh30Eytusq6hK+jMx/xkwWpb4ooAtoSPsZiACSQiQGa1Zzp3/ypnxSKmT/dz1t8k0Ry5K2USQIeof4BOeRHtDfVB8DVdylxZpua6150gcKv+PcwuL2i6tpd3/nOSnuz7lZ3Q+ahBci8cHUPX0Lku2xxPVeB7LCZgAkEEntCrzHZhhx0RKWIP7VewC5oCN9tRAlRNRPe6nKYY34MPspiACTRIYGNJ7+to4L9a0nGSHuHLkA1qnJsaR4BL4egiOoludvGqAL4In2QxAROomQD50H/VQUdDGdmD+zXra0bs3ZvAXAQ27+soutq1AwF8Er7JYgImUAMB0pwe1rF7jyy6OlbSg2vg6V2aQJ0E0Fl0t0sLB1kXgY9yuuw6Ncv77hwB0plSK70rZxUX9UvBbtG5mfaA20YAHaasMTrdFfvFV+GzLCZgAgsSoPzp5R1xHmdLOsDP7C+oMf55RgLkFkC30fEuHAjgs/BdFhMwgTkI8MgRFc264Cy+KWkPSWvPwck/MYGSCKDj6Do63wXbxoc5lXBJGuq+hhPYXlLbFxJdJ+kTvRwGDwin7Q6YQAwBdB8bwBbafDCAL8OnWUzABCYQ2KtXz/zSFjsEFgodI+mOEzj4axPoCgFsAZtoc3IhfBq+zWICJjCCwDq9Z2mPaHHg5yznQ72/O48Yuz8yARO4wTawkTZfEcDH4essJmACfQKsFD61pcGfkqJc5ryrZ9sETGAqAtgKNoPttPHWAL7OT/hMpQreqO0EdpL0u5Ya+gmS7tn2CfT4TKAmAtgONtTGgwB8Hr7PYgKdJXCgpL+10MBPkrRjZ2fVAzeBaglgS9hU2w4E8H08GmkxgU4R2KC3CO4DLTTo70vapVMz6cGaQHMEsC1srG0HAvhCfKLFBFpPgHtfp7fMiP8oaT8/x9963fUA4wmQRwBbw+badCCAT/S6gHj9cg9qJMDinvNaZLhUP3u9K4HVqDHetQmMJkByHWyvTRUI8Y1eLDx6vv1p4QR2lXRxi4L/p/wsf+Ea6e63gQA5BLDFtlwNwEfiKy0m0BoCXLK7piVGeoakf2rNzHggJtAOAtgkttmGAwF8JT7TYgJFE1hL0uEtMcoLe/cdn9WrbHajomfEnTeB9hLANrFRbLUNBwL4TnyoxQSKI7C+pI+2xBA/IumWxc2AO2wC3SSArWKzbTgIwIfiSy0mUAyBzVtS7es3kh5bDHV31ARMYCkBbBcbLv1AgMqJ+FSLCaQnsK2kcwo3OlKQHuXV/el1zR00gUkENu7bculphfGp+FaLCaQlcD9JFxUe/H/Wyzr2wLSE3TETMIF5CGDT2HbJVwPwrfhYiwmkI7CzpEsKNjDScr5K0nrpyLpDJmACVRDAtrHxktOP42PxtRYTSEPgkZKuKDj4f6dXfexuaWi6IyZgAnUSwNax+VKvBuBr8bkWEwgnsHvB2bioO86jNuuGU3QHTMAEmiSAzWP7+IASDwTIgIjvtZhAGIEnFZzgh9XBDwkj54ZNwAQyEMAHlPqkAAmD8MEWE2icwDMKPno+TtLNGyfmBk3ABDISwBfgE0q8EsAVDHyxxQQaI/DcQo3lUkn7NkbJDZmACZREAN+AjyjxQACfbDGB2gm8tFADodzmnWqn4wZMwARKJoCPKLVcOb7ZYgK1EaD8ZmlHx1wie42kdWqj4h2bgAm0iQC+Ap9R4gJBfLTFBConUGLwpyjIwysn4R2agAl0gQC+o8TCQj4I6IJ2NjjGEi/785zvPzTIyE2ZgAm0jwA+pMScAb4d0D5dDBlRiQv+3uWMfiG64kZNoI0EyCCITynt9qcXBrZRGxscE4+XlKT0V/ae6f23Bvm4KRMwge4QwLfgY0ryiX5EsDv6WelISTBR0iKYcyXdq1IC3pkJmIAJrEkAH4OvKeUgAB/uZEFrzqHfTSBAikmyTJWi5CdK2nTCmPy1CZiACVRBAF+DzynFP+LLnTa4ipnvwD4oMkGe6VKU+9W9Cl9rd2BePEQTMIE8BPA5+J5S/CQ+3QWE8uhPyp5QZrKUqn6U9PzXlBTdKRMwga4QwAeVUl4Y3+5Swl3RzBnHeT9J1Jou4Yj2L5IeOuP4vLkJmIAJ1EEAX4RPKsF34uPx9RYTWE1gW0kXFaLA5/UKd2y/uud+YQI3ENhE0n0l/UvvKtYL+5dn3yrpvf1CL5/vJYX6hqQz+ou4SPDCZVH+eM3CLr5jG+7vUhyG37IPLvWyT/ZNG7RlMYGlBPBJ+KYSDgLw9fh8iwlo896l9HMKUdzvStrSc9ZZAqRovbOkx/auVj1P0tGSTpH0hwD9pU3apg/0hT7RN6ec7qx6rvJN+KgSDgLw+fh+S4cJrC/pm4Uo7GclbdThueri0LeQtHc/CcuZhdxr5X4wfSVxDH1nDJbuEMBH4atKOAjA9xMDLB0ksJakjxaiqEf1LsPeqINz1LUhU5d9t94jnW+T9JNCdHMaR89YGBNjY4yWdhPAV+GzptGN6G2IAcQCS8cIHF6Agl4v6eCOzUuXhsvZx6MkvaF3CZ1LpyUlnprXcTNGxsqYGbvPwNqr8fgufNi8utLU74gFlg4R2K8ApcRROq1v+5SSs40HS3q3pIsL0MO6nTAMYAETn4m1T9/xYSUc2BITLB0gsGsBWf7IXMX9U0t7CLBA7lWSfuWgP/aMEDYwgpWlPQTwZdkzq9I/YoOlxQTuWsBZ11WSHt/iOejS0EiZun8vA9m3HPTHBv1xVxhgBjunuG6HxeDT8G3j5jvD51yNIkZYWkiA1cjZn1O9vPdUwiNayL5rQyLb2CcKSymdwQGP6gN5CmDpDG7lWxG+DR83ap6zfEaM8JMr5evaGiPYQNLpyRWPDFV2cmtMW3FvHi7pq8n1LIujnacfsIWxpVwC+LjsGVeJFcQMS0sIfCC5U/6z01MWrWmPk/Tt5Do2T8DN+htYw9xSJgFS8eLzsuoX/SJmWFpA4MDkinaBpHu0gHPXhkA1tD17z7b/MLl+ZXayi/YN9syBq2GWZ334PHzfojpQ5+8PKA+re7yUwE7Js6dhAHdZ2mG/Tk+AJCfkxP9pcudVp2PMtm/mgjlxsqz05rNGB/F9mQ8CyGpJDLEUSICFHL9L7KS5BOYz/7IUa5d+mttsAdD9ueFMkhTEzJGlHAL4wMy3A4ghXhRYjj6t6ikFSU5NHPxdkrIshaIA0wcT65MPANa8lMxcuWhWOTaWvRQ7scRFrsrRJx2R2FnzGIxX+5ehTFxS/p8F5I7wAcCaBwDw4Jlu5s63BcqwNXxi5kcEiSmWAgjslTj4kwjDz/kXoESSdpT0/cS65KC/POiPYsIcMpeW/ATwjZmTBRFbLIkJbC/p0qROm1STzvCXWHn6Xdusn5u+hCImowKeP1t+YMBcUm+AubXkJoCPzJo2mNhCjLEkJLBJL3/+WUmD/3XO7Z9QY5Z3aR9JFybVIQf25YF9VibMLXNsyU2A2gH4zFnnt4ntiTHEGksyAp9MqjCcfbiqXzJlGeoOWb/elVR/mnBqXWuDuXamtyEjSPYWn5n1KhyxxpKIAEVDsjoxamJb8hLYTtIZifUnq16X3i/mnLm35CWA78yqZ8QcSwIC2yZePXpUAj7uwngC/yrpssROJqvza0u/mHt0wJKXAD40o77xxAKxxxJIYF1J30mqIJ/1I0iBmrFy0xtKem9Svcno7NreJ3QBnbDkI8BjnPjSjDpI7CEGWYIIHJZUMb4raaMgJm52ZQKs4v1JUr3J6OS60id0wiu8V7adqG/xpfjUjLpIDLIEEHigpGsTKgX1pJ2FLEAhpmjySYlvF2V0bl3rE5d10RFLPgL4VHxrNp0kBhGLLA0S2FjSrxIqw198FtGgFszW1AsT6ks2Z+b+3BBg0BVLPgJcocHHZtNTYhExydIQgfclVAIqRz20ofG7mekJrNUzzsypobM5M/fnhgCDzqA7llwE8LH42mx6SkyyNEDgCQknH2X0auIGJn/GJlig84Gk+pLNgbk/y4MKuuNFXjMaXQOb42sz6iuxyVIjgVslzdT26hrH7F3PR4BV3Z9L6igyOi/3aXRQQYf8hMB8Nljnr/C52XSWTJPEKEsNBLgc94WEk36ipLVrGK93OT8Bcr5/K6GuZHNY7s90QQRdch2B+e2xjl/ic/G92XSYGOVbRzXM+DMTTva5kjatYaze5fwEbivppwl1pSlHRcESHpn6UC+V6sv6aaj3lPQoSTtJupukrfsB7caS+CO48RnfsQ3b8hvSsbIP9sU+sxbaaoItOoVuWfIQwPfig5uY/1naIFZZKiSwVcKa7FdKuleFY/SuFiewjaTfJnQIsziPabclT/oPesH7SEnPlvSwXsW7Wy+OcOIeaIO2aJO26UPWnO3Tspx2O3QLHbPkIYAPxhdPO4dNbHexJGKWpSICH082wSiRC/xUNLkV7YZ7bxmfE67S4Zwp6e292gV7JLvyxJkYfaJv9LHKMWfbFzrm+7wVGW1Fu8EXZ9MTYpalAgLUh842uVQTs+QhcDNJP06oJ4vq7RW9M84P90vYlpRcir5Sdpe+M4ZFOWT7PbqGzlnyEMhYzZPYZVmAAHWXz0/mQMj/vN4CY/JPqyVAWdevJdORRQIWl9O/ImnfliQXIUEKY2FMbbpVgM65pHC1trzI3vDJ2erCELuIYZY5CWSrBMVjHv8w51j8s+oJUCjkMy0J/j+X9BJJt6seU5o9MjbGyFgXOUjK8lt0Dx205CCAb8ZHZ9EP+uGKsHPqBquRM50xXCfp4XOOxT+rh8AxyYx9Hsfzxd7Z8UPqwZN6r4yZsc/DLNNv0EFLHgL4aHx1Fh0hhhHLLDMQ4NGkbIuJXjND/71p/QRel8jI53E2nD3er35M6VuAQelXcdBFSx4C+Op5bLKu3xDLiGmWKQm8NNkEni5pnSn77s3qJ/DcZPoxrePgzOQ4SfeoH1FxLcAENpnO3qadV7ZDJy05COCr8dmzzF/d2xLTLFMQ2E7SVYkmj+Qnd5qi396kGQKsrM10a2hax3G8JHTbsjIBGMFqWq5ZtkMnvep75blt8lt8dqbEVcQ02/8UGnBqMuNnBbMlBwEWkf05mX5MCkBkKntcDnxF9QJmGbO8rTTf6GabF3EWpUD9p09Wmq+mvyO2WVYg8MRkzp1LkpYcBKjKVlJ+/6t7leS4F+lHxebXH9jBEJZNO+t520NHXUFw/jmv+pf48Hnnso7fEeMsIwisnyyT228k3XxEP/1RDIE3JjPklZzDlyVtG4Opla3CEqYrMc/0HbpqyUEAH44vz6IfZJIk1lmGCBySaJJYiNTFR7OGpiTN28cUct+fe45PSUOtfR2Bbab7uuOCCusB0FlLDgL48kyLS4l1liUESB16SaIDgMOX9M0vYwncJmFyj1GO/4cuFNOIolCMB9aj5iDTZySkQXctOQjg07PoB7GupNTetc/gexJNDukkfQ+v9imfqgGyrJWQ5vedvqw31XxWtRGXUGGexaGP6we660yBVc36YvvBp2dKFUzMs0jaIdHlmb/1a6J7YnIQyJbQY9jR/1XSXjlQdbIXsGcOhucl03t02JKDwN0k4eMz6Ae3JIh9nZeTk0wISvGqzs9GHgD/lPy+//cl3TEPrs72hDlgLjI49VF9YD0AumzJQQAfP2qeIj4j9nVadks0GT9zlb80ukhlr18k0o1h5/AFSTdJQ8sdYS6Yk+F5yvIeXXYF0Rx6yjzg67PoBjGwk0Ju5F8mmQiO0h/YyVnIOeiXJdGLUU6CGvdeI5JPb5gT5mbUnGX4DJ225CCAr8fnZ9ALYmAn6wQ8P8kEoAQu2ZjDMOnFHSRdmUg3ljqJf5e0Vh5U7skQAeaGOVo6Z1leo9PotiUHgUyl5omFnZJNJV2cxFBJErFxp+jnHux/JdGL4cDhZ3dz683S3mXKKbJUj9BtSw4C+PwsCYKIhcTEzshhiZz8YztDPf9Ad0+kFwPHzWrd/fKjcw+HCDBnmZK/DPQJHbfkIIDvH8xL9H9iYieEI50sSX8+0gniZQxyo0RH5EudwbPKwOdejiDA3C2dywyvOetE1y05CBADMugFMbETVwGyZGQiU9ctc+ige9ErmvP6JIa41Bm83DNTPAHmcOmcZniNrltyECAGEAsy6EXrM9BuliiXt8/schggvdg+UYKOgSN4Rx487smCBJjLwbxm+E8yGnTekoNAlitF1LkgRrZWXpvEEM9wis5UOvalJHoxCA4f6yWFWjsVIXdmEQLMJXM6mN8M/9F5Sw4CpGsmJmTQC2JkK+UWic7+nZkrj4rxTG4Gwxv0gbKzTtqSRz+q6glzmq2ksHOPVDW7i++HmDDwAZH/uQpArGydZLnH+6nWkS17QCcmMTyMngxhm5SN071fgQBzmykLHLpvyUOA2BAZ/Adtt26NyOaSLksA92rnb89jbZLuk0AnBkZ3hQtBpdKNujpDQRjmejDv0f+xAUsOAtSVIEZE6wSxkpjZGnlDAqhMauuOrArXkE8n0Qt042mFs3T3pyfAXEc7+UH72IAlD4EsV6qJma0QHrO4PIHB/dGXd1PpE2diWfJxfyAVGXemCQLM+SAIR/7HBrAFSw4CZAgkVkTqBG0TM1vxmHqWs39nc8thYINe/GcCI8PQuCfsyn6DWenOf+Y8y3oAbMGShwCxIvoAgPaLvwrA0dRfE8CkXrgf68pjYNsmSdPq+/55dCKiJ1nWA5CyGJuw5CBArCBmRB8EEDuLrlPz3AQQmcRdcuiVe9En8P4kenGgZ6TzBNCBaEdP+9iEJQ8BYkYGvSCGFikkVzg3AcSTiqTX3k7fXtI1CfTie74q1F4lm2FknO2hC9HOHpvANix5CBA7ovWCGEosLU72TACPyduxOHLt7vBrEugFC6/u327MHt0MBNCFDAtSsQ1LHgLEjugDANonlhYn30wA74TiqLW7w2tJ+nUCvXhXuzF7dHMQQCeinT22gY1Y8hAghkTrBbG0KMlw5MQR/T2Lotb+zma4r0blr1YX3Gi/GtUyQnQiQ1U4r1eqZXrn3ikxJMPVoaKuZB+X4KjpE3NPuX9YF4FjEuiFE/7UNbvl7zdDgiBsxJKLALEk+ioAMbUI2VrStcHAeKzmrkXQ6k4nN5B0SbBefNuXWLujcHOMlMvv6Eiks8dGsBVLHgLEEmJKpF4QU4mt6eXNwaCYpA+lp9S9Du6TQC8e2T3sHvGMBNCRSEdP29iKJRcBYkq0XhBbUwvVtqLP8jhSunNqSt3s3OeDDeg73cTuUc9BAF2JdPbYiiUXAWJK9JVtYmvqaqXPCzYcjNb30HIZDr3ZMoHx7J4Pi3uUlAC6EnkAQKDBZiy5CGRYw0SMTSu/DDYc7tNQ0tGSi0D0geFPfO8/l0Ik7w1rAdCZyIOA1I4++fzV1T1iS/RaAGJsStk52GAwVq/8T6ka+kGwbvyPnFjcq8QE0JnIAwBsxpKPQIYnAoi16SRDfvcHpKPiDm0V7Eg5Yi4ylaZVJ5QAOhN9RRPbseQiQIyJPDCk7XR1I1iYQP3iSDDFZUvKpde19eZJwXrxzNpG5h23nQC6E+nTsB1LPgLRWW6JtakWAz492FAw0j3y6Yl7JOm9gbpBud9UhmKNKIoAuoMORR0EYDuWfASINVE6MWiXmJtGTgsGcrYru6XRheGORFaE/PBwZ/zeBGYkgA4NnG7T/7EdSz4CVJAk5jStD0vbI+amkO2DQQDlgBQk3IlhApQ3Xaq0Tb9+1HCH/N4EZiQQnRjIJYJnnLCGNifmNO3Phtsj9obLEcEgLpK0YTgFd2AUgf0CdeP3Xvw3akr82YwEWAyILg0736beY0OWfASIOcSepvRgVDvE3lBZV9KfgiG8OpSAG1+JQGT6zDeu1DF/ZwIzEECXRjngJj5zWvMZJqrhTYk9TejAuDaIvcTgMInOmHWVpC3CRu+GJxGIPHO626TO+XsTmJIAujTOCdf9OTZkyUmA2EMMqlsHVtp/aIbTE4IHf2xOvXCvJG0XqBs/9AyYQMUE0KmVHHGd32FLlpwEiEF1zv2kfRODQ4QkFdHFER4cMnI3Og2BZwcaxuum6aC3MYEZCKBTk5xxXd9jS5acBIhBdc37NPslBockjDoweOBn5dQH96pP4P8E6ofL/loNqyYQ+TQAtmTJS4BYNE2wrmsbYnHjckrwoA9ufMRucBYC3wrSj79J2miWjnpbE5iCADqFbtXlxFfaL7ZkyUuAWLTS/NX9HbG4UWHxQ2RVpKslbd7oiN3YrAT+HGQUX5u1o97eBKYkgG7V7cxH7R9bsuQlQCwiJo2auyY+IxY3uhh+/8DBAvS4vLrgnvUPzppQ/FFtvMozYAI1EUC3RulcE5/5hKemSa1ot8SkJvRgXBvE5Mbk5ODBPqKxkbqheQg8KFA/dpmnw/6NCUxBAN0a54Dr/hybsuQlQEyqWwdW2j8xuRHqe0kkAAAgAElEQVThSDRy9T/5sddqZKRuZF4CURkAr5S03ryd9u9MYAIBdAsdW8kR1/WdMwJOmJzgr4lJkXVPiMmNXCWKLpF5aPBEu/nJBN4Q5CTTFMiYjMhbFEogqvAZNmXJTYDYVNcB4DT7baT0+UmBg+Qo59a5dcC9k3R8kI74cSmrX90Eoh5vxaYsuQkQmyKvjhOba5VbSLomyLlzBPS5WkfnnVdFIOq52EOqGoD3YwJjCKBj05yNVb2N856MmZBkHxOjqp77afdHbCZG1yZPCxwcEJ5c28i846oIrBP4vHRoXuyqAHo/qQlE1T8hBwG2ZclNgBg1bcCuYztidG1yYuDgKLqwSW0j846rInDnQB1JUR+7KpDeT0oC6FgdjnuafWJbltwEiFGRBYKI0bXIzYIv/3+6llF5p1UTeECQg+Te242rHoz3ZwJDBNCxqPu82JYlPwFi1TQHdHVsw20AYnXlskfgoAC1T+Uj8g7rIBD1POwv6xiM92kCIwiga3U470n7dP6TEZOR8CNi1aS5rPN7YnXlcnTgoK6QdJPKR+Qd1kHgn4P0JKwsZh0Qvc/UBKLKoD8hNRV3bkCAWEXMqjPIr7RvYnXlEpnk4GOVj8Y7rIvAvkGKf0xdA/J+TWCIALq2kgOu6ztsy1IGgY8H6Qi6R6yuVLYJHAwD2rPS0XhndRL4X0G68u91Dsr7NoElBNC1uoL8SvvFtixlECBmrTSXdX9HzK5MqDdcd4fH7f8ySRtWNhLvqG4CLwnSlcPqHpj3bwJ9AujaOH9V5+fYlqUMAsQsYled+rDSvonZlclnAwfykcpG4R01QeB1QbryoiYG5zZMoFcPAF1byfnW9R22ZSmHALGrLl2YtF9idiWyrqRLAweyWyWj8E6aInBUkK48u6kBup3OE0DXJjngOr7HtizlECB21aEH0+yTmE3sXlgiS2BSecuX/xeewkZ3cGyQ0v9ro6N0Y10mgK5N44Sr3gbbspRDgNgVVT0S3aukNPrhQcrOAL5Qzly7p30CnwrSF18psgo2RSDqzA7bspRFgBhW9YHgtPsjdi8s3wscwEEL9947aJpAVLXIXZseqNvrLAF0bVonXOV2tVd76+yM1jfw5wTpCnpH7F5INpd0feAAKn2UYSES/vG0BKIWjP63aTvo7UxgQQLoWpWBfdp9Vbawa8Hx++fTE4h8hJ7YTQyfW/YOUnQM4py5e+0fRhL4QJDO7BU5aLfdKQLo2rRBu8rtsC1LeQSIZVXqwSz7IobPLUcGdvztc/faP4wk8LYgnam1DGYkULedjkBUWXRsy1IeAWLZLEG7ym2J4XNL5P3/x8zda/8wksCrgpT9uZGDdtudIoCuVemkp90XtmUpjwCxbNo5rnq7udcBbBRY/teP/5Wn5IMePy9I2V826ID/m0DNBNC1qh31NPvDtizlEYh8HJDywMTymSXy+X8//jfzdKX5QVQxoDemIeCOtJ0AujZNwK56GxcDKlezIh8HnCsfwIuDlByj8eN/5Sr67kF68x/lInPPCyOArlUd3KfZH7ZlKZNA5OOAxPKZJarmNYaw7cy99Q+yEHhokHP8cBYA7kfrCaBr0wTsqrfBtixlEiCmVa0P0+6PWD6TrCXpoqAOXzBTT71xNgI7BOnNadlAuD+tJYCuTet8q9wO27KUS4DYVqU+TLsvYjkxfWqJPFr55NS99IYZCWwdpOR/yQjDfWolAXRtWudb5XbYlqVcAsS2KvVhln3NdFU9aiEXA3p+ufPrnku6WaCS39IzYAI1E0DHZnG8VW6LbVnKJUBsq1IfZtnXTAtI3x3Y0fuXO7/uef9S03VB+rOzZ8AEaiaAjs3ieKvaFpua6TJuzRy8+9kJENuq0odZ90NMn1rODOroFVXVMJ56pN6wDgJRl0ifXsdgvE8TWEIAHZvV+VaxvW9xLZmEQl+uK4kYV4U+zLoPYvpUctPAAkCnTtVDb5SdwM+DlPxN2cG4f8UTQMdmdb5VbI9NWconQIyrQh9m3QeFgYjtE+XBQR1kQK+Z2DtvUAKBjwfp0MyPu5QA031MRSDq8WhsylI+AWLcrMG7qu2J7RNl/8AOPnpi77xBCQReEqRD55UAx30smgA6VpVDnmU/2JSlfALEuFnmvcptie0T5aigDnKJwqtcJ05PERtEFr+4XRGE3MkSCaBbVTrkWfbl4mglaszyPhPjiHWzzH1V2xLbJ8opQZ378cSeeYNSCNwqSIcwlJkedykFqPuZgkDk49HYlKUdBIh1VQX1WfZDbJ8oFwZ17uiJPfMGJRH4U5AeHVsSJPe1KALo1iwOt6ptsSVLewgQ66rSjVn2Q2xfUbYM6hiDmOr+xIq995eZCERVvzo/EwT3pVUE0K1ZHG5V27o6aqvUaFWsq0o3Zt0PMX6s7Bqk4AzigWN75S9KJPD6QF3apkRg7nNqAujUrM62qu2xJUt7CBDrqtKNWfdDjB8rlOGddYdVbb/J2F75ixIJ7B2oS88sEZj7nJoAOlWVr5t1P9iSpT0EiHWz6kBV2xPjx8p7gjp27tge+YtSCWwXpEsYykdLheZ+pyWATlXlhGfdD7ZkaRcBYt6selDF9sT4sRJV5vL4sT3yF6USWFvS5UFKfqmkDUsF536nI4AuoVNVOOBZ94ENYUuWdhEg5s2qC1VsP7ZsOoUmopT81e2aW4+mT+BbQUqOoTzJs2ACFRFAl6pwvvPsAxuytI8AMW8efVj0N8T4kUWlouq4M6A92ze/HpGkdwQpOTrlldNWwaoIRD3Rgh5jQ5b2ESDmLRrM5/09sX6ZPCKwQ9su640/aAOB/QJ1ivKpTp7SBi2KHQM6FFXeGgePDVnaR4CYN28AX/R3xPplElXmkvKIN1rWG3/QBgJbBTvPF7QBoscQSgAdWtThzvt7DjxWfG47lIwbX4QAMS+qNPDIsulRVYq+swhF/zY9ga8FOlCnl06vHuk7GJW2lYMGbMfSXgLEvnkPDhf53ciqux8M6swx7Z1fj0xSZG4JjOSengUTmJMAurOIo130t8+Zs9/+WRkEiH2L6sg8vyfWL5OoMzWXuVw2Fa364LaB1a8wjve2iqYH0yQBdGceB1vFb6gYh+1Y2ksgqmz6yCtLvw1Sdj+u1V4FH4zs20G6hSP+mySXCB7MhP9PSwCdQXeqCObz7GPs89rTDsDbpScQ9XgpsX4NWTdwsdZOa/TEb9pIIHIhFc53qjrYbQTvMc1NAJ2ZJ3BX9ZuD5+65f1gKAWJfVfoyy35YXErMXy23D+oInWaluKXdBO4QqF/o2FXWs3YrWMWjwyehM7M41aq3xSdb2k0APatab6bd3xr6tUtQR64cl5Wo3fPeydH9IEjHBgZxRCepe9DzEEBXBnoT8f9783TavymOABn5iIEROkbMXy1PDerEWat74BdtJxC14GVgXJdJukXbIXt8CxNAR9CVgd5E/D9k4VF4B6UQIAZG6Bgxf7W8PKgTJ67ugV+0nUBkdcCBgY18/rXt4D2+mQhE5UMZ6Cj/t5mpx964ZALEwKVz39RrYv5qiXoe8Z2re+AXXSDwkyBlHxgVmbdG5sHuAnyPcSIBdCMqO9tAR8+Y2Etv0CYCxMDB3Df5f438O18K6sSL2jSTHstEAq8M0rOlhvWZib30Bl0lgG4s1ZWI1y/rKvyOjpsYGKFnxPzV8qOgTuy1ugd+0QUCdwp83HSpkT22C7A9xpkIoBNLdSTi9bWS1lidPdMIvHGJBIiBEbpGzF8t5wd14n6re+AXXSHwsSBdW2pkv5K0QVeAe5wTCaAL6MRSHYl4/ZGJPfUGbSNADIzQNWL+aol6FOE2q3vgF10hcO8ghR82sld1BbjHOZEAujCsHxHvd5jYU2/QNgLEwAhdI+avkg2DOsCgfRY2mIVu/T8pUOcGxkaiF25JWLpNAB2ITvqDTvqJqG7qITFw4JOa/k/sX1VwoumGae/ybs63Ry1p10ClX6rrp0qiLrelmwSYe3RgqU5EvV4jMUs3p6OzoyYWRujdqmJTXHaKaPw3nZ1uDxwC3w3Su2FdP8zT0VkCzP2wPkS8p1iWpbsEiIURerfqltPDghr/fnfn2yOXtGeQ3g0bGoUxHuEZ6RwB5py5H9aHiPe7d46+B7yUALEwQu+I/Yp6DIH7wJbuElhb0i+DFH/Y2C6QdKvuTkXnRs5cM+fDehDxnlSw5IS3dJdA1JqoVY/h7x9kCH7kpbsKPxj5M4J0b5SjP8XrAQbT0ur/3PdnrkfpQMRn/9Zq2h7cNASIhRG6R+zXoUGNHzkNGW/TagLrSfpDkP6NMjivB2i1uq0aXJb7/ugfz2LfuP3IPcIJBIiFo/xR3Z8R+/WWoMZfMQGKv+4GgahUmKOMi3vCT+gG9k6OkrnNct8f/Xt+J2fBgx4mQCwc5Y/q/ozYr2ODGj9wmILfd5LAJpIuDtLBUQbGM+EP6eRMtHvQzGmG5/0HOvdnSTdpN3KPbkoCxMKBXjT5n9iv44Ma32dKON6s/QQODtLBccbGAcnd24+9MyNkLjMdZKJ3B3WGvgc6iQCxcJwvqvNzYv+qDFR1NjJu34+aRMXfd4bAOpJ+GGQE4/Tz9y4d3Ar9o8QvczluniM+/54XnLZCt6oaBLEwQg9XZZ88Oajxh1ZFz/tpBYH7J7s/i0H+XNItWkG3m4Ng7pjDCOc6rk3WINynm9PhUY8hQCwcpy91fk7s19eDGt9pDAx/3F0CRwXp4kpGRpa2jbs7JcWOnDlj7laa24jv3lYsUXe8LgLEwghdJPbr9KDGfRRclzqVu18WBGa7XIthcsl2i3Kxdq7nzBVzFuFUV2rzd5LQcYsJLCVALFxJb+r6jtivHwU17kVWS1XArwcEsqQIHja6syXdcdBJ/09LgDlirobnL8P7f05LzR2LJEAsjNBPYr9+FtT4dpHE3XZqAicE6eQkIyR97L1Sk+t255ibLCl+h3UJnbaYwCgCxMJhfWniPbFf5wQ1fodRJPyZCUi6Xb9cdBNGMGsbl/TLGXuichGgxDRzM+t8NrE95V55GsFiAqMIEAub0MPhNoj9+m1Q47ceRcKfmUCfwAuC9HLYSEa9v1rS//BMpSHAXDAno+Yqw2cvTEPKHclIgFgYoafEfv0pqPHNM86E+5SGQMbcAMNG+nZJ1DOwxBCAPXMwPC+Z3p8hCV22mMA4AsTCCJ0l9odlyLrpOBr+3AT6BDLmBhg21O96cWCIvrLYD/bD85Hp/fWSHhBCx42WRIBYGKG3ZMfUFUGNb1DSDLmvYQReHqSfsxgkhuQV3s2pCKyzpfYdpS+vbA6JWyqYALFwlP7U/RmxX9cGNU5dbosJTCKwlqRPB+norAboWwKTZnOx70u45D/Qmc9IQnctJjCJALFwoDdN/if2hx0ArDuJir83gT4Bsrr9NMhIZjVIahrs6JmrnABMs9WLGKcbZznhT+Xz3+YdEgvH6VKdn686AIi6BXDzNs+ox1Y5gTtL+kuQocxqhNz7fbekzSqn0L0dwhCWMJ11HiK2/6sk5zjpnp4uMmJiYYSurroFEHUv7baLEPNvO0ng0QkLBq1kuBf1Uhs/w5eC59JVLp/DDoYrMc70HQcpj5trtP5RlwkQCyP0eNUiwKjHAO/S5Rn32OcmcEiQsSxioBSluffcI+7eD2GVsZDPJB14WfemyiOugACxcJJu1fH9qscAoxIB3bcCcN5FNwl8LMhgFjFCysB+WNJduzllU40aNjCC1SKsI37LQlUv+ptqmr3REAFiYYTOrkoEFJUKmBrIFhOYh8BGkkiwEmE0i7bJZeJP+orAGtPOGT9MSrnPP6wDLFB1yeg1ptRvZiBALBzWqSber0oFHFUM6LEzAPKmJjBMgPzZJd0fHmXQn5NELfCuCmOHwSg2pXzGfdRtujqBHnclBIiFEfq+qhhQVDngvStB5510mcDDAx9jrdJgvyJpH0ldSI7FGBkrY66SYcS+uFXxmC4boMdeCQFiYYT+rioHfHpQ40+rBJ130nUCTyn0nvEog+cRsvf2guNDWnY/mXvjjImxMcZRYy/tM25X8JSCxQQWJUAsjNB/Yr++HtT4QYtS8+9NoE+AanBRGS3rMtzzekVkDiv88jKXxhkDY6mLU8R+OfPf19ZnAhURIBZG6DGxXycHNX5oRfC8GxOAwJ6SrgnS5bqNl8xyR0l6gqRNE083faOP9JU+180lYv8caP5L4jlw18ojQCyM0GViv04Mavx15c2Te5ycwG7J68JXYeScfX5P0hskPUrSTQLnhLbpA32hTyU+vjfLnHCA+cRA3m66nQSIhbPoYVXbEvt1fFDjR7ZzLj2qYAKsqL0qSKerMsxZ9sO9aJ7n/bKkd/Sq5HE5kYyJlMutouAW+2Bf7JN90wZt0Wapj+3Nwnew7d96j57uEazbbr6dBIiFAz1r8j+xX8cGNf6+ds6lR5WAwCMlXRmk100a8KS2rpb0m97tkTN7Z+qn9R45/KKkT0j6P706BTidw/t/vOYzvmMbtuU3/JZ9TGqn7d9zQOkUvwkMu6VdIBZG2BCxX28JapxsbhYTqIvAP0m6PEi3I4zZbdbjRDmQ5DaHxQTqIhCV2ZTYr6gFCJ+vi6b3awJ9AjtLutQHASFnF204IOEAcldbkwnUTIBYGGEvqxbi7x/U+NdqhurdmwAEyDbXlmfPI5xEV9u8rJ+7wFZkAnUTIBZG2BmxX3sFNf79uql6/ybQJ3D33qNbZwfpeYRhu83FHOq5rtVg39EgAWJhhM0S+/WwoMZ/0SBgN2UCN5VExbYIQ3Ob5XA/QdLNbS4m0CABYmGEjyD2a4egxn/fIGA3ZQIDAi9sYdbACOfRtjZJ8PPilqVgHui8/+cmQCyMsCdiv24b1PgluefEvWsxAfLS/zFI7yMM3W2u7GAvkMRTIxYTiCBALIywUWK/NgxqnAFT191iAhEEtuo5/a8G6n6EwbvN5Y6WBVi3ilBAt2kC/RgYZZfE/lUSlTSFxVkWE4gisE4vle6bfBAQcvYR5fSWtntEr1gROmAxgSgCxMClOtnUa2L+ajk/qBO7r+6BX5hAHAFSvPpRwRhH1JTDW9oOc+20vnH25pb/TgA9XKqbTb0m5q+WHwV14uDVPfALE4glcOdeUDgjyA6aMnq3I+HrmGuLCWQg8IIgn4MdrJYvBXXinat74BcmEEeAMrYcjP4qyA4cmJs7C2LxJ9XXfBAQZ29u+e8Ejg7yOcT81XJMUCdOWt0DvzCB5gncU9J7JF0RpP8O/M0F/lGsvyLpSb0DgvWbVz23aAKrCFBZc5Ru1v0ZMX+1vDyoE5xxWUygSQLrStpH0jeCdL5uw/b+Z3eof5b0NklelNykJbotCPw6yA8R81fLU4M6QfINHLLFBOomwKNer5T0hyBdd2CePTBHMPu2pKfYL9Vtjt6/pPUkXRfkj4j5q2WXoE5g4L4Xt3oa/KIGAg+W9FFJ1wTqeEQgc5uLHXCwSvr5kjauQSe9SxOAwHaBPomYv1puH9gR19pePQ1+UREBElw8Qzes+HYgXCwQdp3fxf1FgySOsphAlQQeGxh3ifmrhcvwUZciDljdC78wgcUIoNRvlvSXQMPqesBs6/iv7i8Y5azNYgJVEHhOkJ8i1i+79f7boM7gsC0msAiBzSUd2Svm8rcgHW5r0PO4ll89ub5fVfIeiyisf2sCfZ8VYWPE+mVCTuyIznxmWU/8gQlMR4BL/YdKiiqmEWEvbjPGTw1z50Dgw5LuOJ2qeisTWEbg80Exl1i/TD4Y1Jkzl/XEH5jAygRuJOnpvfv8UWU0h4OB3+cIyhHzwFWnoyRtubLK+lsTWEbgF0Exl1i/TF4T1BmKEqy1rDf+wARGE/jvkn4apKsRAcZtlnFwcXnvvio+9Kaj1dafmsAaBDiJibpliZ4uE86oopzNrZf1xh+YwJoEdnT53jD7jPILJbZ7kSTyuzu74Jr263drErhDYLwl1i+TRwR26CHLeuMPTOAGAuSJ+HigbpYYhNznuJOZAXuynD7ORmwCYwg8PNCnEeuXydaBHfq3Zb3xB10ncMv+vVUn8IkPZoOg5v+zz8VnJXG2ZzGBpQT2D4y3xPplwn34S4M6NfKexLIe+oMuENhI0ssCddFBbvYgZ2YrM2OdE7nXfVugCx5sujEeERRrifFj19ydFtQpUrVaTIBLpl7Zv3IwcbAtl885kh5jMzeBfi6JCFsmxo8VSqNGdOpHY3vkL7pAYBNJ7w3SvQh9d5sxfiYL9+MljbwM2wVj9xhXEfh5kL8jxo+Vg4I6RWpCgoClewQeKum8IL3LEhDcj+4dEHAp9lndM3ePuJcBcLPebU4SSUXYPTF+rOwa1ClAjFyZOLan/qJ0AhtIemugIUQYn9uMcXqZuZ8k6R9KN2b3fyYC5DKJ0kli/Fghm1VUx141tlf+om0E7ifprEBdi9LxutvlrOKy3pnlHyWdLemHkkj7ScrRj0l6n6S3STq8l4TkxZL+V//vJb3a5K+V9HZJ75f0CUlflPQtST/uX6Hh+XYK4tQ9hi7u/6+S9mubkXs8Ywm8PtCOJmasvDCocyePxeUv2kKAClSv7uXvvzZIx0oPLgT430jCVo7uJ5zZrZcn4R/7t9DWbkBRbty/hEkOfJ5lpprnv/cPMjjo8NzOf5D0OUlOitaAEgc38fUg/0dsnyinBHWOVJrrTOydNyiVAEHq+0G6VVLgHwT5L/eD/MG9M3mC/F0lcdsku3CAQMlcLnPSdw5UvtKr3fA7z/1UV08oZf3k7JPs/s1NYD1JVwXZArF9olDYIsphcmnY0i4CnJWSGjVK6aN0edp2yQfOpfY39DPHbdqu6V9jNOR4uFf/qgG3JP4U6GumnZ+o7ch+6YXRa6hPK948MFDnie0TJTJD0XMn9s4blESAy8RRl7uiHPekdln9zcIvkh3xBEQJZ/V16tz2vQOBZ0s6TtIFgc5x0rxFfM8tlR3qhO99N07ghYE6TmyfKA8O7CCLjyztIMAjTixIi3CcmdrkLPeTkji4va9vc01U7rv0DgRwVCQHYzFjprmM6AtZBJ8xkZo3KIXAZwJ1mtg+UShnGfWMIgZvKZvAhv2AF+Ess7RJXgMu6d+77KlM0XvWE3AwyS2DKwKdZ7RuUcOdWyiWcgmQgjdqkT0xfepS1WcGGhrV3yxlEmAF8/cCdSfSSf+2d8/2zb3V8Pcvc+qK6PXGkp7Sv4VC8rDI+Y5o+6e9WyXcMrGUSYCD2Qi9oU1i+tTy7sCOPnXqXnrDTAQ42+3aSu8/9B6JO1LSg1YqsJFpklrUl60kPa+DT5ZwW+1fWzSPXRrK0wLjKjF9atk3sKMr5iqeegTesEkCe/RW+vMYZ9TRbZPtck//nZJ2kdTEc/dNzmOpbXFWTEXRLqWUppqc9a8sjSURV5O+amlbxPSpZdvAjpIhzlIOgUMC14wsVfA6X3P/jLruj+wlMrpROVPTuZ5yj5WFTuQe+HOgD6tTF5fumwVlN+ncLJc74F8G6iQxfWrBkEj9uVTZmnx9i6l76g2jCJDwhbSxTepF021xVeMdkraJgux25yaAfpJAiSRETetNk+39QNJt5qbkHzZF4JaBekgsJ6bPJCcEdvjxM/XUGzdNgAO0rwbqR90O9vf9XPltTsrTtM5Etrdjv/561NNNTejrfSIBu+2JBHYP9JfE8pmFYiF1K+64/b9x5t76B00R4DntcwJ1Y5zOVPE5Z1MssKJmgaV9BEinfKyka1qov1ytYi2OJScB1mxU4aPm2QexfGZhkdM8jVXxG1KjWvIRoPjLxYF6UYVuDe+Ds0LupZKVz9INArfrVz5sW14BdPl/d2MKixvlaYF+k1g+s5B0IupImfzoXU+ROvOE1fwD0rVG6cNw0K7iPTrGan7f369ZcRLvnvuyPD3QtoPa//ATAqm0jliGv6nCb826D3z23AmkIpO67JxqCrvbGVa9U0N+VsXLvD0pp51wqrs6PTxyiu68qGWph8kc6OqqwzMd8/4hgf6TGD63kOQkypG/au5e+4dVESCtLzXKo3Sg6na5DEfSHosJjCKwfr8w0f9tic5/ShJPQ1hiCRDLqvZl0+6PGD637B3Y8Z/N3Wv/sAoCBP+TA+d/WgWfZrtfSXpiFVC8j04QuHn/8c82pBs+sVeXAlu2xBEglk3jp+rYhhg+t2wenOSFVbuW5gngMNrw/PRfJD1f0nrNI3SLLSBAeuvIxVtVBQQe2aWOgqV5AsSwquZx1v2wKJQYvpBErgN4xUI994/nIdCG4H91r/LVW3prF/wc/zwa4N8sJUACFXK4l35b4HTbw9Jpbew1MWzWwF3V9gvd/x8QOjxwAD8ZdML/GyHAatFTAue7CsWnbOwdG6HlRrpEgINJVteXfFvgjN6TL1t0adISjJUYVoVfm2cfxO6FJTIfAIMm8YylfgKlB//z+7n66yflFrpMgIx73w506vMEgqW/ISD5ylgzGkzsWsq+6ddzPf8/jIasaJcGDuRlwx3y+8oJEPxPDZzjRQ2D7G43q5yKd2gCowlQhe/pki4s1GY4gHERodFzW+WnxK5Ffdu8vydmV5bRlEpo83Zk0d9x2cpSHwEcQal5/S/oF3ypj473bALjCWzWrzxYYo0BnvDx4tjxc1vFN8SuRePfvL8nZlcmBwYOBAAzlTKsbNTt31HJwZ97/a4a2X4dLWGEjy50keDxThZUm3oRs+YN3lX8jphdmZAutYpOzbuPQysbiXc0IMBq/68Fz+s8+kBpy30Gg/B/E0hC4NaFXkn7wDylYpMwz9wNYtY8/q2q31Se4vzcwAH9MPNMF9g37mGSJawqZWtqP//Vu+S6VYG83eVuECBt9mEFPinw9m5MT6OjJGY15ReH2yFWVy5HBw6IATp3e3VT+ubguRxW2EnvL5G0X3XD955MoFYCVM1kfcokvc70PQculmoIEKsi55ZYXblQazpyUHPVNK6cQvk7PCB4Hv9pYyEAAB96SURBVGfVoe9IonyrxQRKIrBlgam0Dy4JcOK+Eqtm9XNVbk+srlx4zCqyHOz3Kx9R93bIYqVrg5VzFkXn/iQFWiwmUCIBbrW9vLBbAr7StrimEatm8XNVbkuMru2RaApLVNnZWfflDG/zK+cOwfkcZplrsq35bGT+ufYvcxEgIcvvg33ntPZH3XrK11rmI0CMmpZ1HdsRo2sTcmLX0elp90nNbsvsBFihTKa8aTlHbkcBn0fNPkT/wgRSE7ilpC8UYoN/8m23uXWJGBXpP4nRtQnPXUfeBvhubSNr74551j9yReosxkDZTC/2bK8udn1kFBZ6ZXCAmNYef+AywnOpKzFqWsZVb0dsrj03ykmBAwTY7eealm7+iMeSeHSuakWrY38nSNqkm9PkUXeMAGmES1iL858dm5dFh0tsqsM3TrtPYnPt8szgQb6g9hG2p4GjgudqWsWlahULpiwm0BUCj5d0ZQH2eUhXJqSCcRKbpvV5dWxHbK5dNg8+ev1R7SNsRwPR6ZunUfArJO3dDtwehQnMTOBBkljzMo2tRG3DgtzHzDyybv6A2BQ1T1xRIjY3IhSSiBoo7XqV6srTfG9JVwfP0ST9YFX0PVcehr81gdYT+McCFuhe7HosE/WQmDTJ59X5PTG5Mdk/eLCfbGyk5TXEffSzg+dnkqLzRELluarLmyr32ARWEfgHSSyAnWQ3kd+fJemmnq+xBIhJkfNDTG5MtghObsHljq0bG21ZDR0XrIiTjODXku5QFlL31gRqJ0Bp4W8lt10WFHutznJVIBZFLurkNg0xuVE5JVhZ39ToaMtoLPrKzKTg/ys/X1yGIrmXIQSo0MnTMJPsKPJ7p2RfrhrEosg5IRY3LtGLzFg8s1Hjo87b4D2Sryr+haTb5MXnnplACgLr9A6S3xccUFYKZmQKvG8KUjk6QQyKXshJLG5cKMsaedkDJX1246PO2SDJfn6e2Glwf9NlfHPqjnuVk8DrEtszB/M++bpBb4hBKx0w1f0dMTjMt0ZfriKwkF2r6/KhYCVcScl/EnF/qusK4fG3gsArEtv1u1pBeLFBEHuiF28Sg8Nk9wQK+siw0edoOLo+w0rBnxTEtaemzDEN7oUJ1ELg7Ql87Dgb362WEZezU2LPODZNfU4MDpN1e5fhKRzR1GBHtfO5sNHHN8wzxCTTGcUl+jNyYm8aj8g9MIGiCbDqnpS80fY8qv3/G3n5OcGsEntGcWnqM2IvMThUjgiGcH1Hk1SsL+mnwezHKfp36qxJHartbtwEmieAk89aSZB+dfE27LaSiD3jfGATnxN7w2X7YAiA5jJZ14T8+U0o2axtnCuJ0qcWEzCB6giw6O60pDZ/UHXDLGZPGW7NEHtTSLRiXtqxLFV3Dy7LPO6ggJShaZQyhWW4EyZQHQGSBWW86neVpLtVN8z0eyIjIjFnnB9s4nNibhqhvGUTg16pjeeloVFvR7gn+O0EvIfnglrUu9Y7dO/dBDpPgFwav0lo/2dIWq8js0OsGfZ/Tb8n5qYR8s9fHgyFLHNdSFP5nGDO4xR9vzTa6I6YQLsJbCeJBXjjbDHq80PbjX3V6IgxxJooxrRLrCXmppL3B0MBTNsfS6FoSPSlp1GKT9ISiwmYQHMEyMaXzRfwRNLtm0MQ0hIxZpQPbPIzYm062TkBmK+ko1JthyjG0aSiTdMWxYe6uAq42pn13kxgdgKPTbASfdhHhCammR3hzL8gxgyPuen3xNqU8ssEcFgg10bZJwHbYUWnehmPI1pMwARiCLw6oV9o65VYYsuwD2z6PTE2rWRYHEEhjbYJCXUuSKB8S5Wd+2B+3K9tmubxlEaAe9JfTOYbKPndxloBGYo0pV7szsKES4KVkeIIdynNiif0N4PiLQ3+VL9qG+MJU+CvTSAtAdJtZ3syoG3rgvB30cXviK3pFv8NW8Wbgw8ACFTHD3eq4PcPS8BzafC/zo/7FaxN7npbCdxf0tWJfAVlg9uUE+TTCdgSW9PL1gmOlAhYD05PanIHqQ2ercwv9xwtJmAC+QgckCBILT1ZOCUforl69KAEXLn6QGwtQlgZvlQRIl6zQK10eVYCjkvnDqYclFhMwARyEvhgMp/xLzkxzdSrbyZgSkwtRnZMAIzA9YRiiC3vKIto/pCEIyy5/3SH5d30JyZgAokIbNjzez9O5Df+WHia9j2SsCSmFiUZjpq4fF7qGetLkyje4ApAG47kizIgd9YE5iSwjaS/JvIfFC4rUYgdZyXgSCwtTvZMAI7gtX9x5CRW9UY/TTEI/PznsqLFBEygHAJc/Vxqw5GvL5O0RTnoVvc0yy1YYmlxciNJlIaNVDza5hLUTQqj9+8JuA3mjef90z96Utj8ursm0ASBTI8Pv7WJAVfYRpZbsMRQYmmR8twkgewVBdEjl3aWx3mo8PeAgti5qyZgAn8ncPNE64goGXzbv3ct/auXJYldxNBiZeMk96IomlHKJagPJVE8rgCwDsFiAiZQLoEsi9jwJ+8qBCMZTjPcgmUdBzG0aHlDkoD2jgIo3jNRcY+vlnzpqYC5dhdNoCkCH0/ig7mieKemBr1AO29PwovYWbxwNEX94sE95aj/KB+rYzPLFxJwYn5I9UvpYYsJmED5BLj6+eckviX7gmIOUMhiGBWnBu0SM1tTayXLVYBPJLblTCl/903MyV0zAROYncBTEgQ1ghupxO86e/cb+0WGJHZwasXZ/2DWNpfEoyCDo5vI/1kXtZ2WhA/9WGswcf5vAibQGgInJvExn0xK9H5J+BAriZmtktcngfu1hFSpWxB5UDRom6Pz+yTk4y6ZgAksTuB2klgQPbD3yP8Z/Qy1CyKZDNomVrZOSG6TRfken4xuhkpTKN+7k3Fxd0zABKolcGCSIHdCtcNaeG+PScKFGEmsbKW8NgnknyZa4c7CxOsTcGHhX+suO7XSijwoE5ifALf3uAo6ONuM+o/P227+YVT6y7UT1U8gRrZWNkt0FeDgJJTfmcAYcQL/MwkPd8METKBeAnfvL8aLCv6DdrM8mv2cJD6Ys39iZKuFwhADBYj8f2WCxwK51HNFAh5nJLoi0mrl9+BMIAmBYxP4HR51I1thpNwxyWPqxMJSiybNNH+bJsmyBPCvS+LyT5RkSTf5kCgAbtcETCCEwNZJUo6/MGT0NzTK7ZAsC//IPEhs7IQcluDoc3D1gcs/EbJ+r1LhBQk4/GfE4N2mCZhAOIG3JPA/vwks2Z5lQSSxiJjYGeFI5+IEygd4LkNxGahpeXqC8fO86W2aHrjbMwETSEGAW5Dkmx+cDEX9jyh3S9G1LLlpiIWdOfsfaP7zEyjeQOG5DNRk8hva+lmC8b94MBn+bwIm0EkCFPwa+MGo/99omDz+98sJxj3gTSzsnNxY0i8TTcKzG5yBxyYY93mS1mtwzG7KBEwgHwHq3v8xgT+6b4NonpVgvIPgTwwkFnZSdks0ETyCwcKYJiTDwpMDmhio2zABE0hPgJOfQUCK+k8Z9CaEbIgZSv0OOBMDOy0nJ1C+wWR8qYGZuHOC8bL4cIMGxuomTMAE8hNYV9LZwX6JCny3agDVF4PHOYg1/Cf2dV52SJKUYjAxLM6rU16dQAF977/OGfa+TaA8Ak9M4JdeUTO2DAuvB3GGuivEPktvJfp7EijfYGJYFXvbmmaFxSfnBo+V8d20pvF5tyZgAmUSwDd9L9g3cRWiLsGnZ3jiYRBniHmWPoEtk92X+XxNM7NzsIGhfK2sNFXTfHm3JtAlAnsn8E91lWvHpw+Cb/R/1iAQ8yxLCBySaIJQkH2X9K2ql9FXOq6y4lU1ld6PCbSOwDqSzg/2w3XUB8CXRwf9pe0T6yxDBMiMx6NpS0FFvqY6XpWLUhhfdPIjCg9ZTMAETGAcAdYHRfrdCyWxKLEquXUCv7uUJzGOWGAZQSDDQpSlk/XZEX2c96PosV0r6Q7zdt6/MwET6AQBsgNSKG2pH2z69X+vkPQJwWMZZkccsKxA4NRkE/YvK/R1lq+iFfHDs3TW25qACXSWwHuDffBxFZF/cvA4hoM/sc0ygcB2krhXPQwv6v1FFeTLv6Wka4LHRA1wiwmYgAlMInCPYF/FFYhFn1Ri1f+fg8exNGYR04htlikIZMhPvXTyTl8wbe5BwYr4X1Mw9yYmYAImMCDwlWCftd+gI3P8J8X5d4L7vzR+8JqYZpmSALmRz0w2gYs8txn9fO1Dp+TuzUzABEwAArsH+18OQOaVY4L7Phz8iWWdzfc/7yTuJOn6ZBP5zDkGs33wGFh1SpIPiwmYgAlMS+BGwUnL8P3zJGTbP9jfDgd/xkEss8xB4Khkk3m1pFkTVUTnNyD1sMUETMAEZiUQXbL9BTN2mEBLTYHhIBz5nhhmmZPAJgkSUwwrz+9mTKbz1WCF3GZO9v6ZCZhAtwncTNJlgf6LqqnTylaSfh/Y1+E4wXuSKhHDLAsQeHyySWVivzZlsgoMKHL1/2kLcPdPTcAETOCDgf4X3zlNACVx0DcC+zkq+PMZsctSAYGPJ5zct08xrj2D+02db4sJmIAJzEvgccE+bI8pOp7tVjHBn5hlqYgAl3ei0+iOOsp7yoTxvS/QeFivsNmE/vlrEzABE1iJAKvXSYs+yv818dm7Vupcv2ZLE/2YpQ1iFTHLUiEBVuDPMglNbEvCinuPGSMr7/8Q2OdPjemXPzYBEzCBWQhEnsj8doWO3idB2uJRcWaep8VWGKa/ggAB9QuBAXXURPPZryWRP3tY7hXcV57jtZiACZjAogQeFezL/nHEADaX9Jvgfo2KCcQoP3Y9YsKq+IjqfFSLGgU+8rMvS+K52aVyaGA/SV/sxBNLZ8OvTcAE5iVAmeBIvzv8OCC+9uRA/zou1sCoygqy885Xq3/3hIQTj0K8aYh65KrUOmpqDw3Pb03ABDpEgHvx4wJf3Z9zgrVUjgjsy0pjJTZZGiAQeU9qJQUYlHrcVBLld1fats7vdmxgDtyECZhAdwg8LNCfsaD5Jn3U+wT2YyWfTUyyNERgY0m/SqgIJM24m6S9A/v2i4bmwM2YgAl0hwCX3S8I9Gs8U09F08sD+zDuAIBYREyyNEjggcFn2eOU4WxJxwcq6ZsbnAM3ZQIm0B0Ckc/bf1TSOYF+dZy/50ovscgSQOCwhAoxTlGa+vzRAfPgJk3ABNpPYGf722W3dYlBliACpIDMVve5qUA/qh1SZw7ulQVNiZs1ARNoKYG1g28DjPJ5kZ8Re4hBlkAC2ya9LxShmF8PnAc3bQIm0H4CH/NVgFVXAViLQOyxJCCQrQZ0RPCnzVcmmAt3wQRMoL0EDvQBwKoDAGKOJRGBT1oxxT06iwmYgAnURYCnnKJOcLK0S6yxJCNA2cizOqycXJJy9r9kSunumEDLCJDmNjIrYPRBADFmmhLFLZv2MoazvaRLO3oQcGIZU+RemoAJFE6AQmPRgTiifWILMcaSmMBeHVXO4XzZiafIXTMBEyiYwEEd9bHEFksBBLLmiq7zqJXqgxYTMAETqJvAPTt4AEBMsRRCgOpVp3ZISan+xzO6FhMwAROomwC+5i8d8q/EEmKKpSACW0j6XUeU9OMFzYu7agImUD6Bz3bEtxJDiCWWAgnsJOlvHVBUP5NaoHK6yyZQMIGDO+BXiR3EEEvBBLqQuOK+Bc+Pu24CJlAeAXxOnWuaMuz7gPKmxT0eReADLVbW653/f9SU+zMTMIEaCXBP/KoW+1VihqUlBDaQdHpLlfXXLZkjD8METKAsAj9uqU8lVhAzLC0iwEKO81qosJ9r0Rx5KCZgAuUQOK6F/pQY4UV/5ejgTD29q6SLW6a0b5qJgDc2ARMwgWoIUHwsw736qvpAbCBGWFpMYFdJ17RIcf+txXPloZmACeQl8MQW+VFiArHB0gEC+7VIce/fgfnyEE3ABPIRuHuL/CgxwdIhAoe3RHldmapDSuuhmkAiAutLuq4FfpRYYOkYAcpafrRw5f1tx+bMwzUBE8hF4OzCfSgxgFhg6SABjmC/WbACf6GDc+Yhm4AJ5CFQckpgfD8xwNJhAptLOqfQg4A3d3jePHQTMIF4Am8o1Hfi8/H9FhPQtpKoqFfV4yRN7edpnjsTMAETCCSwb4F+E1+Pz7eYwGoC95N0SWHK7EIVq6fPL0zABAII7FiYz8TH4+stJrCMwM6SrihIoV0FcNkU+gMTMIEGCTynIH+Jb8fHW0xgLIFHSrq6IKV+jxeyjJ1Lf2ECJlAPgQ0llVRkDZ+Ob7eYwEQCuxeWLfAHPWO848RReQMTMAETWJwA989LKgRElj98usUEpibwpMKSXJDHerepR+cNTcAETGB2AnsWtlaKREX4cosJzEzgGQXdChg8efBGSdTqtpiACZhAVQTWlfTWAv0hPtxiAnMTeG6BSv9VSbeae8T+oQmYgAn8ncBtCk2Yhu+2mMDCBF5a4EHAHyU9dOGRewcmYAJdJkCFvD8V6P/w2RYTqIzA6ws0gmslvdi5rivTAe/IBLpCgPz4BNESi/3gqy0mUDmBEg8CWBtwgqRNK6fhHZqACbSRwGa9ZDmfK/CEB1/n4N9GjUw0phJvB2AY5/UOBO6TiKO7YgImkI8AWfJ+XWjw92X/fPrUyh6VuDCQgwCSYTh7YCtV0oMygYUJPLuwJGj4tMGfF/wtPP3ewSwEeLykxPtjGMyHJG00y2C9rQmYQGsJ4AvwCYNgWtJ/fLAf9WutauYeGAkmyDJVksEM+nq2pH/Kjde9MwETqJkAPgBfMPALJf3H9zrJT80K4t2vTIAUkyXVDhg28PdKuvnKQ/S3JmACLSOAzWP7w/6glPf4XKf3bZlSljocikyUVEVw2MjJGUCKT4sJmED7CWDr2PywHyjlPb7WhX3ar6dFjZAyk9SaLsWIRvXzeEm3Loq6O2sCJjAtAWwbGx9l+6V8ho91Sd9pZ9zbNUqAR2guKtzA/to7O3iWkwc1qjduzATqJEBSH2wa2y4l0I/qJ74VH2sxgbQEKJV5TuGGhvFRT4CxWEzABMolgA1jy6MCakmf4VPtj8rVw071fPNCi2cMO4Srek85vEQSlcAsJmAC5RDAZrFdbHjYrkt7/01J+FSLCRRDYH1JH22B8eEszvClt2L0zh01AS6TY7OlBfpR/cWH4kstJlAcAe69Hd4SQyThxlucQKg4HXSHu0OAhD7YaKkJyoYPAPCd+FCLCRRNYL+CEwYNG+W5vdsbjyh6Ntx5E2gfAWwS2xy21xLfk+AHn2kxgdYQoK72xS0xUJwKqUO3bs3seCAmUCYBbLDUNL6jDk7wkfhKiwm0jsBd+1X5Ril+iZ+RjetISVu0bqY8IBPITQCbw/ZKzkI67POoWIqPtJhAawlguKe36EoARnxZf63DzVo7ax6YCeQggI1xbxybGw6gJb/HJ/pEIoeOuRc1E9hA0gdaZsA4n7/0zkgOkbRhzfy8exPoGgFsCtvCxkoO9KP6ji/EJ1pMoFMEDpT0txYa9B8kMbYbd2o2PVgTqJ4ANoQtYVOjgmfJn+H7DqgemfdoAuUQ2EnS71po3DgmViU/RdLa5UyHe2oCKQhgM9hOW1b2Dx+o4PPwfRYT6DwB7n2d2tKDAAz/TJfu7LyOG8D0BChzi80MB822vMfX+X7/9PrgLTtAYB1JR7TY6HFeLPTxIz4dUGYPcS4C2EbbFggPH7Tg4/B1FhMwgREE9pJ0acsPBE6WtOOIsfsjE+giAWwBmxgOlm16j0/Dt1lMwAQmENhe0lktdwg4t89I2mUCC39tAm0lgO5jA20K9KPGgi/Dp1lMwASmJLCJpE92wDngMH7cr1dOLnOLCbSZADr+rL7OjwqWbfsMH4Yvs5iACcxBYH9Jl3fkQIA0oG+VtM0cnPwTE8hMAJ1Gt9uUDnylgxV8Fr7LYgImsCCBbSV9pyMHATiV63trBE6U9Fg/Qrig5vjnkQR4lA8dRpfR6ZUCZpu+w1fhsywmYAIVEVi3t3r2MEnXdsiR4BR/1Ut7erCkTSvi6N2YQN0E0FV0Ft1tU2CfNBZ8Ez4KX2UxAROogcADO+hYcDxXSHqvpHvWwNS7NIEqCKCb6Ci6OilYtu17DnbwTRYTMIGaCWws6X0ddDIDp/kNSfv4TKNmLfPupyHA2S66iE4O9LNr//FF+CSLCZhAgwSe0MsTfmGHHQ/50V8p6VYNMndTJgABdA7da2OO/mkPYPA9+CCLCZhAEAEc0Rc6fBCAs+Le41f6RVNuHTQPbrb9BNAtCvOga11bizN8UIDP8YF3+3XeIyyAwFq9M5FndugRo2FntPQ9q62/1V+EdYcC5s5dzE0AHWJBHzrVpZX8S21q6WseY8TX4HMsJmACiQhsJenjHb8asNRZ8foHvbO1QyXdJdE8uSu5CaAr6Ay6M6xPXX6Pb8HHWEzABBITeLyk8+28ljnvn0p6tZ8kSKy5cV1jBT+6gY50OciPGju+BJ9iMQETKIQA6TeP8mXLsc6cx5be2C9K5MuZhSh1hd1kzinCgw507Xn9UUF+1Gfc8sCHOJVvhYrnXZlAkwR2anlt8VGOa9bPOMM5sl+Y6EZNTo7bapQAc0sBHubaV8hWvtJxpiR8h8UETKBwAjeW9FJJV/ny5tgrAoODhr/2n6p4ee/Z7of77KdozefMlTlkLlm1ztwO5tn/R7PAR+Ar8BkWEzCBFhHYTtKpdoIzBYHrJP1I0jt7l4qfLOlOLdKHtg2FuWGOmCvmjLlzoJ+eAb4BH2ExARNoMYEnSjrPznHu4HCBpE/3Ur6+UNKDJK3fYl3JOjSYw545YC6YEwf7+RjgC/AJFhMwgY4QwIEeIukSO86FA8ffJJ3Wu13wZkn/LMnJiKo3IpjCFsawhrkD/mIMsH18gA9gq9dX79EEiiCwpaT3+HJp5cHk173Lqf/ZTxfLZWkKpcDasjIBGMEKZqTahSEsHeyrY8CtEWze+riyLvpbE+gMgR0knWxHW3uguVzSGZI+1SugcoSkZ/eyzD2yv7agC2VUGSP36hkzY4cBLGACGwf6ehlg49i6xQRMwASWEdhN0i/tiEMCEfnleSb9pN7Z2X/0AuILeoFxj77DLqnaGn0lyNB3xsBYGBNj63oO/agDHGwa27aYgAmYwIoEeATo+a4tEHIQsFKAoPraOf2z5W/2gypnzx/spWg9un82/SpJL5J0QG+h51N7OSD2lPTfeld3dpZ0b0nb9i7/3kbSzfvllDkj5zWf8R3bsC2/4bfsg32xT/bNGTtt0SZtE9jpC2fw9K3L1SlXmruo78jdjy37sb4VXZ6/NAETGCawqaTDvFAw3YFAVDBxu/Venq+SLwv8sF1s2GICJmACcxPAiRzeO5O41LcGfDBgHUitA9goturAP7e78w9NwARGEdhM0mt9IJA6AFR5Ful9lXPGT+DHNrFRiwmYgAnURuAWkl7fq5N+mc8GfTBgHQjVAWwQW8QmLSZgAibQGIHNJb3Bj2+FBgCfpZdzll7lXPHIJLaHDVpMwARMIIzALfvOyMVWuhmMqgxs3tfKOoSNEfixOYsJmIAJpCHA89/PlXSuLwv7qoB1oFIdwKawrZLyQaRxTO6ICZhAcwSou84z5Dwf7jM6M7AOzK8D2BC2hE1ZTMAETKAoAjtKOs4Z4Hwg5IPBqXWAbInYDLZjMQETMIHiCWzdr+Tm6oPznw36TLrd7LANqh1iKxYTMAETaB2BTXqZBZ/negNTnw066Lc76DO/5OnHJrANiwmYgAl0ggA559/vxwh9MNDB2wM8xofuYwMWEzABE+gsAc58ni7ptA4GAp/ht/8Mf+kco+Pous/2O+vuPHATMIFxBLbvV5z7kw8GfGWgJTqALlNFEd22mIAJmIAJTCBAmdrdJZ3gJwh8IFDggQAr+dFddBhdtpiACZiACcxBYKtenfkDJZ0i6boCg8HSS8B+3d5L/ugmOoquorMWEzABEzCBCglsIWn/3uKpk31lwFcGEhwMcqaPLqKT6KbFBEzABEygAQIUQnmmpJMkXZMgGPjsvr1n90vnFl1D59A9F+NpwNDdhAmYgAmsRIByqE/rZU870QcDvjJQw8EgQR/dQsdcenclS/R3JmACJhBI4GaS9ujdhz3ahYl8MLDAwQAFeNAhdAmdspiACZiACRRGYJv+wqzPSrp0gYCw9DKwX7fvcj+6gY6wiA+dsZiACZiACbSIAI9k7SLpcEnfk3S9Dwg6e5WAuUcH0AV0wo/rtcjQPRQTMAETmESARVx7SzqyHwy8mLB9Z/aDqzXMLQGfuWbOvYBvknX4exMwARPoEIGN+meDL+4ncrnIVwiKvULA3JGMh7nkDJ+5tZiACZiACZjAVATWkrStpH0lvVvSmb5tkPKAgMv5zA1zxFwxZ8ydxQRMwARMwAQqI3BTSQ/uJ385qnd2Sfa3C32loLEDA1jDHPYk4GEumBOLCZiACZiACYQQ2FLSrpIOkvSefnVDP3Uw/5oC2FE9D5YwhS2MLSZgAiZgAiaQngCXobeW9Ih+GdjXSPqgpK9J+m3Haxtc12cAC5jAhlK5sIKZL+GnV2930ARMwARMYF4CPHp2+/4itaf2biO8XNIxkr7UqyT3o17mufMlXVng7QX6TN8ZA2NhTIyNMbIgjzH7sbt5tca/MwETMAET6AyBDSXdVtIOvasHD5O0V//+96G9+99vkXSspOP76WopTvN1Saf3A/DPJJ3TP9umNv3Fkq7oF1OimA2v+YzvuCrBtvyG4M0+2Bf7JBUubdAWbdI29+DpC32ib/SRvlpMwASSE/j/ZPmO4Mv8IJQAAAAASUVORK5CYII=;" vertex="1" parent="WIyWlLk6GJQsqaUBKTNV-1">
          <mxGeometry x="90" y="80" width="80" height="80" as="geometry" />
        </mxCell>
        <mxCell id="ZMwdmfN9rIGzUT7Zmn_N-15" style="edgeStyle=orthogonalEdgeStyle;rounded=0;orthogonalLoop=1;jettySize=auto;html=1;" edge="1" parent="WIyWlLk6GJQsqaUBKTNV-1" source="ZMwdmfN9rIGzUT7Zmn_N-4">
          <mxGeometry relative="1" as="geometry">
            <mxPoint x="125" y="350" as="targetPoint" />
          </mxGeometry>
        </mxCell>
        <mxCell id="ZMwdmfN9rIGzUT7Zmn_N-4" value="QUERY" style="ellipse;whiteSpace=wrap;html=1;" vertex="1" parent="WIyWlLk6GJQsqaUBKTNV-1">
          <mxGeometry x="70" y="240" width="110" height="60" as="geometry" />
        </mxCell>
        <mxCell id="ZMwdmfN9rIGzUT7Zmn_N-9" value="QUERY EMBEDDING" style="rounded=0;whiteSpace=wrap;html=1;" vertex="1" parent="WIyWlLk6GJQsqaUBKTNV-1">
          <mxGeometry x="70" y="360" width="120" height="60" as="geometry" />
        </mxCell>
        <mxCell id="ZMwdmfN9rIGzUT7Zmn_N-10" value="EMBEDDING GENERATION MODEL (FAISS)&amp;nbsp;" style="rounded=0;whiteSpace=wrap;html=1;" vertex="1" parent="WIyWlLk6GJQsqaUBKTNV-1">
          <mxGeometry x="280" y="360" width="120" height="60" as="geometry" />
        </mxCell>
        <mxCell id="ZMwdmfN9rIGzUT7Zmn_N-22" style="edgeStyle=orthogonalEdgeStyle;rounded=0;orthogonalLoop=1;jettySize=auto;html=1;" edge="1" parent="WIyWlLk6GJQsqaUBKTNV-1" source="ZMwdmfN9rIGzUT7Zmn_N-11">
          <mxGeometry relative="1" as="geometry">
            <mxPoint x="215" y="640" as="targetPoint" />
          </mxGeometry>
        </mxCell>
        <mxCell id="ZMwdmfN9rIGzUT7Zmn_N-11" value="" style="shape=cylinder3;whiteSpace=wrap;html=1;boundedLbl=1;backgroundOutline=1;size=15;rotation=90;" vertex="1" parent="WIyWlLk6GJQsqaUBKTNV-1">
          <mxGeometry x="160" y="470" width="110" height="170" as="geometry" />
        </mxCell>
        <mxCell id="ZMwdmfN9rIGzUT7Zmn_N-12" style="edgeStyle=orthogonalEdgeStyle;rounded=0;orthogonalLoop=1;jettySize=auto;html=1;entryX=-0.033;entryY=0.631;entryDx=0;entryDy=0;entryPerimeter=0;" edge="1" parent="WIyWlLk6GJQsqaUBKTNV-1" source="ZMwdmfN9rIGzUT7Zmn_N-9" target="ZMwdmfN9rIGzUT7Zmn_N-11">
          <mxGeometry relative="1" as="geometry" />
        </mxCell>
        <mxCell id="ZMwdmfN9rIGzUT7Zmn_N-13" style="edgeStyle=orthogonalEdgeStyle;rounded=0;orthogonalLoop=1;jettySize=auto;html=1;entryX=0;entryY=0;entryDx=0;entryDy=50;entryPerimeter=0;" edge="1" parent="WIyWlLk6GJQsqaUBKTNV-1" source="ZMwdmfN9rIGzUT7Zmn_N-10" target="ZMwdmfN9rIGzUT7Zmn_N-11">
          <mxGeometry relative="1" as="geometry" />
        </mxCell>
        <mxCell id="ZMwdmfN9rIGzUT7Zmn_N-23" style="edgeStyle=orthogonalEdgeStyle;rounded=0;orthogonalLoop=1;jettySize=auto;html=1;" edge="1" parent="WIyWlLk6GJQsqaUBKTNV-1" source="ZMwdmfN9rIGzUT7Zmn_N-17">
          <mxGeometry relative="1" as="geometry">
            <mxPoint x="220" y="740" as="targetPoint" />
          </mxGeometry>
        </mxCell>
        <mxCell id="ZMwdmfN9rIGzUT7Zmn_N-17" value="LLM&lt;div&gt;(Context &amp;amp; Query)&lt;/div&gt;" style="rounded=0;whiteSpace=wrap;html=1;" vertex="1" parent="WIyWlLk6GJQsqaUBKTNV-1">
          <mxGeometry x="160" y="650" width="120" height="60" as="geometry" />
        </mxCell>
        <mxCell id="ZMwdmfN9rIGzUT7Zmn_N-18" value="ANSWER" style="rounded=0;whiteSpace=wrap;html=1;" vertex="1" parent="WIyWlLk6GJQsqaUBKTNV-1">
          <mxGeometry x="160" y="750" width="120" height="60" as="geometry" />
        </mxCell>
        <mxCell id="ZMwdmfN9rIGzUT7Zmn_N-20" value="VECTOR DATABASE" style="text;html=1;align=center;verticalAlign=middle;whiteSpace=wrap;rounded=0;" vertex="1" parent="WIyWlLk6GJQsqaUBKTNV-1">
          <mxGeometry x="180" y="530" width="60" height="50" as="geometry" />
        </mxCell>
        <mxCell id="ZMwdmfN9rIGzUT7Zmn_N-24" value="Cosine similarity" style="text;html=1;align=center;verticalAlign=middle;resizable=0;points=[];autosize=1;strokeColor=none;fillColor=none;" vertex="1" parent="WIyWlLk6GJQsqaUBKTNV-1">
          <mxGeometry x="300" y="460" width="110" height="30" as="geometry" />
        </mxCell>
      </root>
    </mxGraphModel>
  </diagram>
</mxfile>
